<?xml version="1.0" standalone="no"?>
<!DOCTYPE svg PUBLIC "-//W3C//DTD SVG 20010904//EN"
 "http://www.w3.org/TR/2001/REC-SVG-20010904/DTD/svg10.dtd">
<svg version="1.0" xmlns="http://www.w3.org/2000/svg"
 width="512.000000pt" height="512.000000pt" viewBox="0 0 512.000000 512.000000"
 preserveAspectRatio="xMidYMid meet">
<metadata>
Created by potrace 1.11, written by Peter Selinger 2001-2013
</metadata>
<g transform="translate(0.000000,512.000000) scale(0.100000,-0.100000)"
fill="#000000" stroke="none">
<path d="M501 5105 c-178 -39 -348 -172 -429 -336 -77 -155 -72 5 -72 -2209 0
-2214 -5 -2054 72 -2209 82 -166 251 -297 434 -336 104 -22 4004 -22 4108 0
239 50 441 252 491 491 22 104 22 4004 0 4108 -50 239 -252 441 -491 491 -101
21 -4014 21 -4113 0z m1145 -1516 c432 -48 644 -264 646 -654 1 -220 -51 -356
-186 -491 -164 -165 -362 -224 -743 -224 l-173 0 0 -355 0 -355 -235 0 -235 0
0 1045 0 1045 415 0 c229 0 459 -5 511 -11z m1484 -389 l0 -400 360 0 360 0 0
400 0 400 235 0 235 0 0 -1045 0 -1045 -235 0 -235 0 0 440 0 440 -360 0 -360
0 -2 -437 -3 -438 -232 -3 -233 -2 0 1045 0 1045 235 0 235 0 0 -400z"/>
<path d="M1195 3219 c-3 -8 -4 -151 -3 -319 l3 -305 125 -3 c376 -9 514 82
515 338 0 74 -4 93 -29 143 -32 66 -84 106 -171 133 -72 23 -432 33 -440 13z"/>
</g>
</svg>
