<?xml version="1.0" standalone="no"?>
<!DOCTYPE svg PUBLIC "-//W3C//DTD SVG 20010904//EN"
 "http://www.w3.org/TR/2001/REC-SVG-20010904/DTD/svg10.dtd">
<svg version="1.0" xmlns="http://www.w3.org/2000/svg"
 width="512.000000pt" height="512.000000pt" viewBox="0 0 512.000000 512.000000"
 preserveAspectRatio="xMidYMid meet">
<metadata>
Created by potrace 1.11, written by Peter Selinger 2001-2013
</metadata>
<g transform="translate(0.000000,512.000000) scale(0.100000,-0.100000)"
fill="#000000" stroke="none">
<path d="M540 5113 c-14 -2 -54 -13 -90 -24 -200 -63 -352 -215 -422 -424
l-23 -70 0 -2035 0 -2035 23 -70 c70 -210 217 -357 427 -427 l70 -23 2035 0
2035 0 70 23 c210 70 357 217 427 427 l23 70 0 2035 0 2035 -23 70 c-69 207
-211 351 -422 427 l-65 23 -2020 1 c-1111 1 -2031 0 -2045 -3z m1100 -1523
c433 -45 652 -265 652 -655 0 -220 -53 -359 -186 -490 -168 -167 -362 -225
-748 -225 l-168 0 0 -350 0 -350 -235 0 -235 0 0 1040 0 1040 413 0 c226 0
455 -5 507 -10z m1490 -390 l0 -400 360 0 360 0 0 400 0 400 235 0 235 0 0
-1040 0 -1040 -235 0 -235 0 0 435 0 435 -360 0 -360 0 0 -435 0 -435 -235 0
-235 0 0 1040 0 1040 235 0 235 0 0 -400z"/>
<path d="M1192 2914 l3 -319 130 -3 c371 -8 510 84 510 338 0 148 -60 233
-195 275 -41 13 -106 19 -253 22 l-197 6 2 -319z"/>
</g>
</svg>
