<svg version="1" xmlns="http://www.w3.org/2000/svg" width="682.667" height="682.667" viewBox="0 0 512.000000 512.000000"><path d="M54 .7c-1.4.2-5.4 1.3-9 2.4C25 9.4 9.8 24.6 2.8 45.5l-2.3 7v407l2.3 7c7 21 21.7 35.7 42.7 42.7l7 2.3h407l7-2.3c21-7 35.7-21.7 42.7-42.7l2.3-7v-407l-2.3-7c-6.9-20.7-21.1-35.1-42.2-42.7L460.5.5l-202-.1C147.4.3 55.4.4 54 .7zM164 153c43.3 4.5 65.2 26.5 65.2 65.5 0 22-5.3 35.9-18.6 49-16.8 16.7-36.2 22.5-74.8 22.5H119v70H72V152h41.3c22.6 0 45.5.5 50.7 1zm149 39v40h72v-80h47v208h-47v-87h-72v87h-47V152h47v40z"/><path d="M119.2 220.6l.3 31.9 13 .3c37.1.8 51-8.4 51-33.8 0-14.8-6-23.3-19.5-27.5-4.1-1.3-10.6-1.9-25.3-2.2l-19.7-.6.2 31.9z"/></svg>