<svg version="1" xmlns="http://www.w3.org/2000/svg" width="744" height="744" viewBox="0 0 558.000000 558.000000"><path d="M0 278.4V393h43v-85.8l30.8-.5c34.1-.5 36.5-.8 50.2-7.5 12.8-6.3 24.6-19.3 30.7-33.7 6.2-14.7 7.1-40.5 1.8-56-1.4-4.4-4-10.5-5.7-13.5-4.8-8.4-15.9-18.8-25.3-23.7-15.1-7.8-13.5-7.6-72.7-8L0 163.9v114.5zM91.9 206c16 2.7 24.3 12.2 24.4 28.4 0 10.9-1.4 15.4-6.9 21.5-7.6 8.4-10.6 9.1-40.9 9.1H43v-29.3c0-16.2.3-29.7.7-30 1-1.1 41.2-.8 48.2.3zM192 184.5v20.4l10.8.3 10.7.3v146l-10.7.3-10.8.3V393h48.8c51.3 0 59.9-.6 72.2-4.8 23.5-8.1 36.9-22.9 43.2-47.7 2.3-8.8 2.3-10.1 2.3-62.5 0-52.2-.1-53.7-2.3-61.5-6.8-24.7-21.5-40.7-43.7-47.5-14.5-4.4-23-5-73.2-5H192v20.5zm92 21.5c11.7 1.4 20.3 5.7 24.7 12.4 6.4 9.5 6.6 11.1 7.1 53.5.4 39.6-.3 51.3-3.5 59.5-3.9 9.7-9.2 14.8-18.8 18.2-3.6 1.2-9.4 1.8-20.7 2.2l-15.8.4V205h9.3c5.1 0 13.1.5 17.7 1zM397 278.5V393h44v-94h74v94h43V164h-43l-.2 46.7-.3 46.8-36.7.3-36.8.2v-94h-44v114.5z"/></svg>