<svg version="1" xmlns="http://www.w3.org/2000/svg" width="826.667" height="826.667" viewBox="0 0 620.000000 620.000000"><path d="M0 309.5V437h48v-14.8-48c0-31 .1-33.2 1.7-33.2 1 0 15.5-.2 32.3-.4 16.8-.2 32.1-.7 34-1 23.4-4.5 42.8-18.6 52.9-38.5 2.9-5.5 6.9-17.8 7.7-23.3 1-6.9 1.2-24.9.3-32.1-2.6-21.2-15.7-41.6-33.9-52.5-6.7-4-17.1-8.1-25-9.8-1.9-.4-29.3-.9-60.7-1.1L0 181.9v127.6zM104.5 229c14.8 2.8 24.1 13.5 24.9 28.9.8 17.1-4.4 27.3-17.4 33.5l-6.5 3.1-28.7.3-28.8.4.1-33.6v-33.5l5.2-.3c11.4-.7 45.6.2 51.2 1.2zM213.3 204.9v23l12.1-.1h12l.1 78.8c0 43.4-.2 80.1-.3 81.5l-.4 2.6-9.6-.1c-15.6-.3-13.9-3.1-13.8 23.6v22.9l54.6-.4c30-.2 56.3-.7 58.5-1 28.6-4.3 44.7-12.9 57.9-31.1 5.5-7.6 11.2-23 13.2-35.6.4-2.5.9-27.9 1-56.5.4-63.7-.4-70.9-9.6-90-10.3-21.4-29.2-33.7-59.9-39.2-2-.3-28.8-.8-59.7-1l-56-.5-.1 23.1zm100.6 23.5c20.2 1.5 31.9 11.3 36 30.1 1.1 5.4 1 97.1-.2 101.4-6.6 24.1-17.2 30.7-49.6 31l-14.6.2-.1-81.3v-81.3l3.6-.5c4-.6 14.2-.4 24.9.4zM441.6 308.7c.1 69.8.2 127.1.3 127.6.1.4 10.8.6 23.9.5l23.7-.3.1-52v-52l41.2-.3 41.2-.2v105h48V182h-48v104h-82.5V182.5l-24-.3-24-.2.1 126.7z"/></svg>