<svg fill="none" height="512" viewBox="0 0 512 512" width="512" xmlns="http://www.w3.org/2000/svg"><rect fill="#2a3643" height="512" rx="32" width="512"/><g fill="#fa755a"><path d="m95.7085 277.852v60.148h-31.7085v-164h56.195c8.952 0 17.039 1.314 24.261 3.942 7.222 2.553 13.353 6.158 18.393 10.813 5.116 4.581 9.028 10.1 11.736 16.558 2.783 6.458 4.175 13.629 4.175 21.514 0 7.359-1.392 14.155-4.175 20.387-2.708 6.233-6.62 11.639-11.736 16.22-5.04 4.506-11.171 8.035-18.393 10.588s-15.309 3.83-24.261 3.83zm0-25.682h24.4865c4.514 0 8.426-.675 11.736-2.027s6.055-3.192 8.237-5.519c2.257-2.328 3.912-4.994 4.965-7.998 1.129-3.078 1.693-6.27 1.693-9.574 0-3.829-.564-7.396-1.693-10.7-1.053-3.304-2.708-6.195-4.965-8.673-2.182-2.478-4.927-4.431-8.237-5.858-3.31-1.426-7.222-2.14-11.736-2.14h-24.4865z"/><path d="m200.087 338v-164h42.541c10.908 0 20.763 1.877 29.565 5.632 8.877 3.679 16.437 8.861 22.681 15.544 6.319 6.608 11.171 14.53 14.556 23.766 3.461 9.237 5.191 19.374 5.191 30.412v13.517c0 11.038-1.73 21.176-5.191 30.412-3.385 9.161-8.162 17.083-14.33 23.766-6.169 6.609-13.579 11.752-22.23 15.432-8.651 3.679-18.205 5.519-28.662 5.519zm31.934-138.319v112.863h12.187c5.943 0 11.247-1.126 15.911-3.379 4.739-2.253 8.726-5.519 11.961-9.8 3.31-4.28 5.83-9.461 7.56-15.544 1.731-6.157 2.596-13.141 2.596-20.95v-13.742c0-7.359-.865-14.042-2.596-20.049-1.655-6.083-4.175-11.302-7.56-15.657-3.31-4.355-7.448-7.734-12.413-10.137-4.889-2.403-10.569-3.605-17.039-3.605z"/><path d="m448 338h-31.37v-71.074h-46.491v71.074h-31.483v-164h31.483v67.245h46.491v-67.245h31.37z"/></g></svg>