<svg xmlns="http://www.w3.org/2000/svg" xmlns:xlink="http://www.w3.org/1999/xlink" version="1.1" xml:space="preserve">
  <defs>
    <g id="portfolio_wgi-buzz">
      <rect fill="#555555" width="400" height="600"/>
      <path fill="#00833E" stroke="#00833E" stroke-width="0.8" stroke-miterlimit="10" d="M183.4 117.9l25.8 110.9c0.5 2.8 3.4 5 6.4 5h26.1c2.9 0 4.6-2.2 4-5l-25.7-110.9c-0.6-2.8-3.5-5-6.4-5h-26.1C184.6 112.9 182.8 115.2 183.4 117.9z"/>
      <path fill="#00833E" stroke="#00833E" stroke-width="0.8" stroke-miterlimit="10" d="M246.5 113.2c-2.8 0-4.5 2.2-3.9 5l16.3 53.9c0.5-2.5 2.6-5.6 4.1-9 7.5-17.9 22.7-43.6 17.6-47.5 -1.2-1-0.1-0.2-1.3-1.2 -2.2-1.8-4.8-1.2-7.6-1.2H246.5z"/>
      <path fill="#00833E" stroke="#00833E" stroke-width="0.8" stroke-miterlimit="10" d="M118.6 117.9l25.6 110.9c0.7 2.8 3.5 5 6.4 5h26.1c2.9 0 4.6-2.2 4.1-5L155 117.9c-0.6-2.8-3.4-5-6.3-5h-26.1C119.6 112.9 117.9 115.2 118.6 117.9z"/>
      <path fill="none" stroke="#FFFFFF" stroke-width="6.5" stroke-miterlimit="10" d="M200 22.9c-97.3 0-176.4 79.6-176.4 177.4 0 47.4 18.5 92.1 52.1 125.6 1.1 1.1 2.7 4.8 2.7 6.8 0.6 14.7 4.6 48.5 28.3 74.9 -1.3 1.8-2.4 3.8-3.3 5.9 -4 9.8-3 20.7 2 29.3 -3.7 9.7-2.6 20.5 2.2 28.7 0 0 0 0.1 0 0.1 -5.8 14.3-1.1 31 10.9 38.8 0.6 0.4 9.7 6.3 25.3 11.9 -0.2 2.2-1.2 21.9 13 37.6 10.2 11.2 24.8 17 43.7 17.2 0.4 0 0.8 0 1.3 0 18.1 0 32.2-5.5 41.9-16.3 13.8-15.3 12.7-34.9 12.3-38.6 14.7-5.3 23.7-10.8 25.3-11.8 12.1-7.8 16.8-24.6 11-38.8 0 0 0-0.1 0-0.1 4.9-8.2 5.9-18.9 2.3-28.5 5-8.5 6-19.5 2-29.4 -0.8-2-1.8-3.7-3-5.4 23.4-26.5 27.6-60.5 28.2-75.3 0.1-2 1.7-5.8 2.8-6.9 33.4-33.6 51.9-78.2 51.9-125.6C376.4 102.5 297.3 22.9 200 22.9zM221.6 540.6c-3.9 4.4-11.1 6.5-20.6 6.4 -10.1-0.1-17.5-2.6-21.9-7.3 -2.8-3-4.1-6.6-4.8-9.6 4.8 0.8 9.9 1.4 15.2 1.8 5.1 0.4 9.2 0.5 10.1 0.5 0.1 0 0.3 0 0.4 0s0.3 0 0.4 0c0.8 0 4.9-0.1 10.1-0.5 5.5-0.4 10.7-1.1 15.6-1.9C225.6 533.3 224.5 537.4 221.6 540.6zM266.1 456.2c-3.9 2.3-6.8 6.5-7.5 11 -1.2 7.6 3.3 12.7 6 15.8 0.4 1-0.2 2.3 0.5 2.2 -0.2 0.1-22.3 14.2-56.9 16.8 -4 0.3-7.2 0.4-8.2 0.4 -1 0-4.2-0.1-8.2-0.4 -34.2-2.6-56.1-16.3-56.3-16.3 0 0 0 0 0 0 -0.2-0.4-0.5-1.7 0.5-3.3 2.2-2.5 6.7-7.6 5.5-15.2 -0.7-4.5-3.6-8.7-7.5-11l-0.3 0c-0.2-0.4-0.5-1.7 0.2-3.1 2.2-2.7 6.2-7.8 4.8-15 -0.5-3-2-5.8-4.1-8 11.6 5.5 33.5 13.5 62.2 13.9h6.8c11.9-0.2 22.6-1.7 31.8-3.8 1.7-0.4 3.3-0.7 4.9-1.1 3.1-0.8 6-1.6 8.7-2.5 1.9-0.6 3.8-1.2 5.6-1.9 4.2-1.6 7.9-3.1 10.8-4.5 -2.1 2.2-3.5 4.9-4 7.9 -1.3 7.2 2.6 12.2 5.1 15.5 0.4 1 0.2 2.2 0.5 2.2h0L266.1 456.2zM303.4 304.6c-6.4 6.4-11.2 17.5-11.5 26.9 -1 24.7-9.9 62.8-53.1 76.7 -0.5 0.2-1 0.3-1.5 0.5 -10 3-21.8 4.8-35.6 4.8h-1.4c-77.2-0.6-90.6-51.6-91.8-81.9 -0.4-9.6-5-20.4-11.5-27 -27.9-27.9-43.3-64.9-43.3-104.3C53.6 119.1 119.3 53 200 53c80.8 0 146.5 66.1 146.5 147.3C346.5 239.6 331.2 276.6 303.4 304.6z"/>
      <path display="none" fill="none" stroke="#FFFFFF" stroke-width="6.5" stroke-miterlimit="10" d="M265 239.2c-64.1 52.7-127.4 2.2-130 0 -1.6-1.3-3.8-1.5-5.6-0.5 -1.8 1-2.8 3-2.5 5.1l20.4 139.1c0.4 2.7 2.9 4.7 5.7 4.2 2.7-0.4 4.6-2.9 4.2-5.7l-18.7-127.8c20.6 12.6 70.9 35.6 122.5 1.1l-23.7 126.5c-0.5 2.7 1.3 5.3 4 5.9 0.3 0.1 0.6 0.1 0.9 0.1 2.3 0 4.4-1.7 4.9-4.1L273.1 244c0.4-2.1-0.6-4.2-2.4-5.2C268.9 237.7 266.7 237.8 265 239.2z"/>
      <polyline fill="none" stroke="#FFFFFF" stroke-width="4.3" stroke-linejoin="round" stroke-miterlimit="10" points="228 394 269.7 304.7 269.7 304.7 "/>
      <polyline fill="none" stroke="#FFFFFF" stroke-width="4.3" stroke-linejoin="round" stroke-miterlimit="10" points=" 163.5 390.9 119.8 285.8 119.8 285.8 "/>
      <path fill="#FFFFFF" stroke="#FFFFFF" stroke-width="2.2" stroke-miterlimit="10" d="M147.8 272c0.3 1 0.4 2 0.4 3.1 0 5.2-1.8 9.6-5.4 13.4 -3.6 3.8-7.8 5.7-12.7 5.7 -3.6 0-6.4-1.1-8.7-3.2 -2.2-2.1-3.4-4.9-3.4-8.2 0-2.4 0.4-5.9 1.3-10.5l5.1-26.1c-1 0.2-1.9 0.3-2.6 0.3 -4.4 0-6.5-2.3-6.5-6.9 1.3 1.3 3.4 1.9 6.4 1.9 2.6 0 5.9-0.7 10.2-2l-7.2 36.5c-0.5 2.5-0.7 4.6-0.7 6.5 0 2.5 0.7 4.6 2 6.1 1.3 1.6 3 2.4 5.2 2.4 3.2 0 5.9-1.5 8.2-4.4 2.2-2.9 3.4-6.5 3.4-10.6 0-2.1-0.3-4.1-1-6 -2.6-0.9-4.7-2-6.3-3.4 -1.6-1.4-2.5-2.7-2.5-4.1 0-0.7 0.3-1.6 0.9-2.7 5.5 0.4 9.7 2.8 12.6 7.2 2.7 1.3 5.4 1.9 8.4 1.9 3 0 6-0.9 9.2-2.7l1.6 2.5c-3.6 2.7-7.5 4.1-11.9 4.1C151.5 272.8 149.6 272.5 147.8 272z"/>
      <path fill="#FFFFFF" stroke="#FFFFFF" stroke-width="2.2" stroke-miterlimit="10" d="M184.7 274.5c-2.8 5.8-6 10.6-9.4 14.3 -3.5 3.7-6.6 5.5-9.3 5.5 -2.2 0-4-0.8-5.4-2.4 -1.4-1.6-2.1-3.6-2.1-6.2 0-3.2 1.1-9.2 3.2-17.8 0.6-2.3 0.9-3.8 0.9-4.4 0-0.6-0.2-1.3-0.6-2l4.2 0c1.8 0 2.7 0.7 2.7 2.1 0 0.9-0.6 3.4-1.8 7.6 -0.4 1.2-0.6 2.1-0.7 2.6l-0.5 1.9c-0.9 3.7-1.3 6.6-1.3 8.6 0 3 1 4.5 3.1 4.5 3.4 0 7.7-4.2 13-12.7 4.3-6.9 6.4-11.8 6.4-14.7 0-0.4-0.1-0.8-0.4-1.2 1.7-0.5 3.1-0.7 4.3-0.7 1.8 0 2.7 0.6 2.7 1.7 0 0.3-0.1 0.7-0.2 1.2 -0.1 0.3-0.3 1.1-0.6 2.2 0 0.2-0.2 1.1-0.6 2.5 -0.3 1-0.5 1.8-0.6 2.4l-0.3 1.5c-0.7 3.4-1 6.5-1 9.5 0 4.5 1.1 6.8 3.2 6.8 4.8 0 10.8-6.8 18.2-20.3l2.6 1.5c-8.4 16.2-16 24.3-23 24.3 -4.7 0-7-4.1-7-12.2C184.4 278.8 184.5 276.8 184.7 274.5z"/>
      <path fill="#FFFFFF" stroke="#FFFFFF" stroke-width="2.2" stroke-miterlimit="10" d="M233 288.7c0.7 1.8 1 3.3 1 4.5 0 5.3-1.8 10.1-5.5 14.4 -3.7 4.3-7.8 6.4-12.4 6.4 -2.7 0-4.9-0.7-6.7-2 -1.8-1.4-2.6-3.1-2.6-5.1 0-4.2 6.3-10.1 18.9-17.5 -1.7-0.8-3.4-1.1-5.3-1.1 -3 0-6.1 0.8-9.4 2.3 -0.1-0.6-0.1-1-0.1-1.3 0-2.6 0.9-4.3 2.8-5 1.1-1.6 3.2-4.3 6.3-8l7.8-9.5c-2.1 0.6-4.2 1-6.3 1.3l-2.4 0.3c-4.1 0.5-7.1 1.6-8.8 3.4 0.5-3.9 1.4-6.4 2.7-7.5 1.3-1.1 4-1.7 8.1-1.7h2.7c4 0 6.7-0.7 8.3-2 0.7 1.1 1.1 2.3 1.1 3.5 0 1.2-0.9 2.9-2.7 5 -0.5 0.6-2.5 3.1-6.1 7.8l-5 6.5c1.3-0.2 2.4-0.3 3.4-0.3 3.2 0 5.9 1 8.3 2.9 7.7-5.2 14.4-11.6 19.9-19.2l2.5 1.6C248.9 275.3 242.1 282.2 233 288.7zM228.1 291.8c-10.7 6.9-16 11.9-16 15.1 0 1.1 0.5 2.1 1.4 2.9 0.9 0.8 2.1 1.2 3.4 1.2 2.9 0 5.7-1.6 8.4-4.7 2.7-3.2 4-6.5 4-9.9C229.4 294.8 229 293.2 228.1 291.8z"/>
      <path fill="#FFFFFF" stroke="#FFFFFF" stroke-width="2.2" stroke-miterlimit="10" d="M272 288.7c0.7 1.8 1 3.3 1 4.5 0 5.3-1.8 10.1-5.5 14.4 -3.7 4.3-7.8 6.4-12.4 6.4 -2.7 0-4.9-0.7-6.7-2 -1.8-1.4-2.6-3.1-2.6-5.1 0-4.2 6.3-10.1 18.9-17.5 -1.7-0.8-3.4-1.1-5.3-1.1 -3 0-6.1 0.8-9.4 2.3 -0.1-0.6-0.1-1-0.1-1.3 0-2.6 0.9-4.3 2.8-5 1.1-1.6 3.2-4.3 6.3-8l7.8-9.5c-2.1 0.6-4.2 1-6.3 1.3l-2.4 0.3c-4.1 0.5-7.1 1.6-8.8 3.4 0.5-3.9 1.4-6.4 2.7-7.5 1.3-1.1 4-1.7 8.1-1.7h2.7c4 0 6.7-0.7 8.3-2 0.7 1.1 1.1 2.3 1.1 3.5 0 1.2-0.9 2.9-2.7 5 -0.5 0.6-2.5 3.1-6.1 7.8l-5.1 6.5c1.3-0.2 2.4-0.3 3.4-0.3 3.2 0 5.9 1 8.3 2.9 7.7-5.2 14.4-11.6 19.9-19.2l2.5 1.6C287.8 275.3 281 282.2 272 288.7zM267.1 291.8c-10.7 6.9-16 11.9-16 15.1 0 1.1 0.5 2.1 1.4 2.9 0.9 0.8 2.1 1.2 3.4 1.2 2.9 0 5.7-1.6 8.4-4.7 2.7-3.2 4-6.5 4-9.9C268.4 294.8 267.9 293.2 267.1 291.8z"/>
    </g>
    <g id="portfolio_wgiki">
      <rect fill="#CCCCCC" width="300" height="150"/>
      <path fill="#FFFFFF" d="M15 43.4V39c4.8 0.4 8.9 0.4 12.5 0.4 3.8 0 8.2-0.1 13.2-0.4v4.3c-3 0.1-4.8 0.4-5.5 0.8 -0.6 0.4-1 1.1-1 2.2 0 1.1 0.9 6.7 2.7 16.6l4.8 26.6 10.9-27.1C57 51.7 60 43.9 61.8 38.9h3.8l17.6 53 7.1-31.7c1.5-6.8 2.3-11.5 2.3-14.1 0-1-0.3-1.9-0.9-2.2 -0.6-0.4-2.7-0.6-6.1-0.8V39c5.5 0.4 8.7 0.4 10.3 0.4 1.6 0 4.8 0 9.1-0.4v4.3c-2.3 0.3-3.8 0.6-4.4 1.3 -0.6 0.6-1.3 2.2-1.9 4.6 -1 3.7-3.5 14.3-7.6 31.9l-6.7 29.8h-8.1l-17-51.5L48.3 87c-3.4 8.6-6.5 16.6-9.1 24h-6.1c-0.8-4.1-3.2-16.9-7.2-38.3l-4.4-23.8c-0.5-2.4-0.9-3.8-1.5-4.3C19.4 44.1 17.8 43.7 15 43.4zM146.2 85.5v-4.2c5.2 0.1 9.8 0.3 13.8 0.3 3.7 0 7.7 0 12.2-0.3v3.3c-1.3 0.5-2.4 1-3.5 1.6 -0.4 3.4-0.5 6.3-0.5 8.7 0 1.8 0.1 5.2 0.5 10.3 -5.7 2.5-10.4 4.3-14.2 5.1 -3.8 0.9-7.7 1.4-11.8 1.4 -10.9 0-19.5-3.4-25.7-10.3 -6.2-6.8-9.3-15.6-9.3-26.5 0-11.2 3.2-20.2 9.5-26.7 6.3-6.7 15.3-10 27.3-10 4.2 0 8.1 0.4 11.9 1.1 3.8 0.8 7.5 2 10.9 3.5l0.4 0.8c-0.9 4.3-1.4 9.8-1.9 16.1h-3.5c0-3.2-0.3-6.1-0.5-8.6 -1.8-2.5-4.2-4.3-7-5.6 -2.9-1.3-6.2-1.9-10.1-1.9 -7.2 0-13.1 2.7-17.4 8 -4.3 5.3-6.6 12.5-6.6 21.8 0 9.9 2.3 17.7 6.8 23.7 4.6 6 10.1 9 16.9 9 3.5 0 7.4-1 11.3-3.2 0.3-2.7 0.4-5.1 0.4-7.4 0-5.3-0.3-8.1-0.8-8.7C154.8 86.4 151.8 85.9 146.2 85.5zM179.4 110.7v-4.3c3.9-0.3 6.1-0.6 6.6-1.1 0.5-0.5 0.8-1.9 0.9-3.9 0.3-4.6 0.3-12.9 0.3-25.1 0-4.7 0-11.5-0.1-20.4 0-6.1-0.1-9.4-0.4-10 -0.1-0.6-0.5-1.1-0.9-1.4 -0.6-0.4-2.8-0.8-6.5-1v-4.3c5.8 0.3 10.3 0.4 13.4 0.4 5.3 0 10.1-0.1 14.5-0.4v4.3c-3.9 0.3-6.1 0.6-6.6 1 -0.5 0.5-0.8 1.5-1 3.2 -0.3 3.3-0.4 9.9-0.4 19.9 0 13.3 0 22.6 0.1 27.8s0.4 8.4 0.8 9.3c0.1 0.5 0.5 0.8 1 1 0.5 0.3 2.5 0.5 6 0.8v4.3l-5.1-0.1c-2.9-0.1-5.7-0.1-8.2-0.1L179.4 110.7zM211.1 39.9h-1.3V39h3.5v0.8h-1.3v3.5h-1V39.9zM213.9 39h1.4l1 3 0 0 1-3h1.4v4.3h-0.9v-3l0 0 -1 3H216l-1-3 0 0v3h-0.9V39H213.9zM217.4 110.6v-3c2.7-0.1 4.2-0.3 4.7-0.5 0.3-0.1 0.4-0.4 0.5-0.6 0.3-0.5 0.4-3 0.4-7.5 0.1-4.4 0.1-9 0.1-13.8 0-3.9 0-8.9-0.1-15 -0.1-4.4-0.3-6.8-0.4-7.4s-0.4-0.9-0.8-1.1c-0.4-0.3-1.9-0.4-4.3-0.4v-2.7c3.3-0.4 6-0.8 8.1-1.1 2-0.5 3.9-1 5.7-1.9 0.5-0.3 0.8-0.3 1-0.3 0.4 0 0.5 0.4 0.5 1l-0.1 1.6c-0.1 1.8-0.1 8.9-0.3 20.9l-0.1 10.4 0.1 2c5.2-4.4 10.6-9.8 16.2-16.1 1.8 0.1 3.3 0.3 4.7 0.3 1.6 0 3.4-0.1 5.3-0.3v3c-2.8 0.1-4.4 0.3-4.9 0.5 -0.5 0.1-1.4 0.8-2.5 1.5s-4.2 3.5-9.4 8.1l5.3 6.1c6.2 7 9.8 10.9 10.9 11.9 0.8 0.6 1.6 1 2.9 1.1v3c-2.8-0.1-5.3-0.3-7.6-0.3 -1.8 0-3.5 0.1-5.3 0.3 -2.4-3.3-4.9-6.2-7.4-9 -3.3-3.8-6.1-6.7-8.2-8.7v6c0 3.4 0.1 5.8 0.5 7.1 0.1 0.5 0.4 0.9 0.8 1.1 0.4 0.3 1.9 0.4 4.6 0.5v3c-4.8-0.1-8-0.3-9.6-0.3C226.9 110.4 223.3 110.5 217.4 110.6zM264.3 110.6v-3c2.8-0.1 4.4-0.3 4.8-0.5 0.4-0.3 0.8-0.9 0.9-2 0.3-1.5 0.3-5.1 0.3-10.4 0-2.3 0-4.4-0.1-6.3L270 84c0-1.4-0.1-2.3-0.5-2.7 -0.4-0.4-1.1-0.5-2.5-0.6l-2.8-0.1v-2.9c6-0.5 10.9-1.5 14.7-3.2l0.9 0.8c-0.4 4.7-0.5 11.7-0.5 20.7 0 5.2 0.1 8.4 0.3 9.5 0.1 0.8 0.4 1.3 0.6 1.5 0.4 0.3 1.9 0.5 4.8 0.6v3c-4.4-0.1-7.9-0.3-10.4-0.3C273.6 110.4 270.2 110.5 264.3 110.6zM274.7 56.7c1.5 0 2.9 0.5 4.1 1.6s1.6 2.5 1.6 4.1c0 1.5-0.5 2.9-1.6 4.1s-2.5 1.6-4.1 1.6 -2.9-0.5-4.1-1.6c-1.1-1.1-1.6-2.5-1.6-4.1 0-1.6 0.5-2.9 1.6-4.1C271.7 57.3 273.1 56.7 274.7 56.7z"/>
    </g>
    <g id="portfolio_wgi-informer">
      <rect fill="#37AB58" width="500" height="150"/>
      <path fill="#FFFFFF" d="M25.5 35.9h106.8v78.2H25.5V35.9zM72.5 48.2l12.9 55.2c0.3 1.3 1.7 2.5 3.1 2.5h13c1.4 0 2.3-1.1 2-2.5L90.7 48.2c-0.3-1.3-1.7-2.5-3.1-2.5H74.5C73.1 45.7 72.2 46.9 72.5 48.2zM103.9 45.9c-1.3 0-2.3 1.1-1.9 2.5l8.1 26.8c0.3-1.2 1.3-2.8 2-4.5 3.7-9 11.3-21.7 8.8-23.6 -0.6-0.5-0.1-0.1-0.7-0.6 -1.1-0.9-2.4-0.6-3.8-0.6H103.9zM40.2 48.2l12.8 55.2c0.4 1.3 1.8 2.5 3.1 2.5h13c1.4 0 2.3-1.1 2-2.5L58.3 48.2c-0.3-1.3-1.7-2.5-3.1-2.5h-13C40.7 45.7 39.8 46.9 40.2 48.2z"/>
      <path fill="#FFFFFF" stroke="#FFFFFF" stroke-width="1.7" stroke-miterlimit="10" d="M185 51.5v46.9h-1.3V51.5H185zM194 51.5L226 96.7h0.1V51.5h1.3v46.9h-2l-31.9-45.2h-0.1v45.2H192V51.5H194zM260.6 73.4v1.3h-24.9v23.7h-1.3V51.5h28.8v1.3h-27.5v20.5H260.6zM264.5 75c0-3.3 0.5-6.5 1.4-9.4 1-3 2.3-5.6 4.1-7.8 1.8-2.2 4.1-4 6.8-5.3 2.7-1.3 5.7-2 9.2-2s6.6 0.7 9.2 2c2.7 1.3 5 3.1 6.8 5.3 1.8 2.2 3.1 4.9 4.1 7.8 1 3 1.4 6.1 1.4 9.4 0 3.3-0.5 6.5-1.4 9.4 -1 3-2.3 5.6-4.1 7.8s-4.1 4-6.8 5.2c-2.7 1.3-5.8 1.9-9.2 1.9 -3.5 0-6.6-0.7-9.2-1.9 -2.7-1.3-5-3.1-6.8-5.2s-3.1-4.9-4.1-7.8C265 81.5 264.5 78.3 264.5 75zM265.7 75c0 3.3 0.6 6.5 1.4 9.3 1 2.9 2.3 5.3 4 7.3 1.7 2.1 3.8 3.6 6.3 4.9 2.5 1.1 5.3 1.7 8.5 1.7 3.1 0 5.9-0.6 8.5-1.7 2.5-1.1 4.6-2.8 6.3-4.9 1.7-2.1 3.1-4.5 4-7.3 1-2.9 1.4-5.9 1.4-9.3 0-3.3-0.6-6.5-1.4-9.3 -1-2.9-2.3-5.3-4-7.3 -1.7-2.1-3.8-3.6-6.3-4.9 -2.5-1.1-5.3-1.7-8.5-1.7 -3.1 0-5.9 0.6-8.5 1.7 -2.5 1.1-4.6 2.8-6.3 4.9 -1.7 2.1-3.1 4.5-4 7.3C266.3 68.5 265.8 71.7 265.7 75zM313.1 98.5V51.5h19.1c4.9 0 8.5 1 10.8 3 2.3 1.9 3.4 5 3.5 9.1 0.1 3.1-0.8 5.7-2.5 7.8 -1.7 2.1-4.3 3.5-7.5 4.2v0.1c2 0.3 3.5 0.8 4.8 1.4 1.2 0.7 2.2 1.5 2.9 2.7 0.7 1 1 2.4 1.3 3.9 0.2 1.5 0.3 3.1 0.3 5.1 0 0.7 0 1.4 0.1 2.5 0 1 0.1 2 0.2 3 0.1 1 0.2 1.8 0.3 2.7 0.1 0.8 0.3 1.3 0.5 1.6h-1.4c-0.2-0.5-0.4-1.1-0.5-1.9 -0.1-0.8-0.2-1.7-0.3-2.6 -0.1-1-0.1-1.8-0.1-2.8s0-1.8 0-2.6c0-1.9-0.1-3.6-0.4-5.1 -0.3-1.5-0.9-2.8-1.7-3.8 -0.9-1-2.1-1.8-3.7-2.4 -1.6-0.6-3.8-0.9-6.5-0.9h-17.8v22L313.1 98.5 313.1 98.5zM331.9 75.2c1.7 0 3.4-0.2 5.1-0.7 1.6-0.5 3-1.1 4.2-2.1 1.2-1 2.2-2.2 3-3.6 0.8-1.4 1.1-3.2 1.1-5.2 0-3.3-1-5.9-3.1-7.8 -2-1.9-5.1-2.8-9.6-2.8h-18.1v22.2L331.9 75.2zM397 51.5v46.9h-1.3V53.3h-0.1l-19.8 45.2h-1.4l-19.8-45.2h-0.1v45.2h-1.3V51.5h2.2L375 96.7h0.1l19.7-45.2H397zM435.3 97.1v1.3h-31.3V51.5h31v1.3h-29.7v20.5h27.9v1.3h-27.9v22.5L435.3 97.1 435.3 97.1zM439.3 98.5V51.5h19.1c4.9 0 8.5 1 10.8 3 2.3 1.9 3.4 5 3.5 9.1 0.1 3.1-0.8 5.7-2.5 7.8 -1.7 2.1-4.3 3.5-7.5 4.2v0.1c2 0.3 3.5 0.8 4.8 1.4 1.2 0.7 2.2 1.5 2.9 2.7 0.7 1 1 2.4 1.3 3.9 0.2 1.5 0.3 3.1 0.3 5.1 0 0.7 0 1.4 0.1 2.5 0 1 0.1 2 0.2 3 0.1 1 0.2 1.8 0.3 2.7 0.1 0.8 0.3 1.3 0.5 1.6h-1.4c-0.2-0.5-0.4-1.1-0.5-1.9 -0.1-0.8-0.2-1.7-0.3-2.6 -0.1-1-0.1-1.8-0.1-2.8s0-1.8 0-2.6c0-1.9-0.1-3.6-0.4-5.1 -0.3-1.5-0.9-2.8-1.7-3.8 -0.9-1-2.1-1.8-3.7-2.4 -1.6-0.6-3.8-0.9-6.5-0.9h-17.6v22L439.3 98.5 439.3 98.5zM458 75.2c1.7 0 3.4-0.2 5.1-0.7 1.6-0.5 3-1.1 4.2-2.1 1.2-1 2.2-2.2 3-3.6 0.8-1.4 1.1-3.2 1.1-5.2 0-3.3-1-5.9-3.1-7.8 -2-1.9-5.1-2.8-9.6-2.8h-18.1v22.2L458 75.2z"/>
      <path fill="#FFFFFF" stroke="#FFFFFF" stroke-width="1.7" stroke-miterlimit="10" d="M151 97.4H149V83.7h1.9v5.7h15.2v2.3H151V97.4zM149 79.6h7.3v-9.1H149v-2.3h17.1v2.3h-7.8v9.1h7.8v2.3H149V79.6zM149 52.7h1.9v9.5h5.4v-8.9h1.9v8.9h5.9v-9.6h1.9v11.9H149V52.7z"/>
      <path fill="#FFFFFF" d="M149.7 106.2h-3v-1.8h7.9v1.8h-3v7.9h-2.1L149.7 106.2 149.7 106.2zM155.9 104.4h3.1l2.3 6.7 0 0 2.2-6.7h3.1v9.7h-2v-6.9l0 0 -2.4 6.9h-1.6l-2.4-6.9 0 0v6.9h-2v-9.7H155.9z"/>
    </g>
    <g id="portfolio_jahleh-and-patricks-wedding">
      <rect fill="#33C1D7" width="800" height="150"/>
      <path fill="#FFFFFF" stroke="#FFFFFF" stroke-width="1.9" stroke-miterlimit="10" d="M45.3 101.3c-1.7 0-3.1-0.2-4-0.7v-3.9c1.3 0.4 2.6 0.5 4 0.5 1.8 0 3.2-0.5 4.1-1.6 0.9-1.1 1.4-2.6 1.4-4.7V51.2h4.6v39.3c0 3.4-0.9 6.1-2.6 8C51.1 100.4 48.6 101.3 45.3 101.3zM83.9 90.9L83 86.6h-0.2c-1.5 1.9-3 3.1-4.5 3.8 -1.5 0.7-3.3 1-5.6 1 -3 0-5.3-0.8-7-2.3 -1.7-1.5-2.5-3.7-2.5-6.5 0-6 4.8-9.1 14.5-9.4l5.1-0.2v-1.8c0-2.3-0.5-4.1-1.5-5.2 -1-1.1-2.6-1.7-4.9-1.7 -2.5 0-5.3 0.8-8.5 2.3l-1.4-3.4c1.5-0.8 3.1-1.4 4.9-1.9 1.8-0.5 3.5-0.7 5.3-0.7 3.6 0 6.2 0.8 7.9 2.4 1.7 1.6 2.6 4.1 2.6 7.6v20.3H83.9zM73.6 87.7c2.8 0 5-0.8 6.7-2.3 1.6-1.5 2.4-3.7 2.4-6.5v-2.7l-4.5 0.2c-3.6 0.1-6.2 0.7-7.8 1.7 -1.6 1-2.4 2.5-2.4 4.6 0 1.6 0.5 2.9 1.5 3.7S71.8 87.7 73.6 87.7zM117.1 90.9V71.7c0-2.4-0.6-4.2-1.7-5.4s-2.9-1.8-5.2-1.8c-3.2 0-5.5 0.8-6.9 2.5s-2.2 4.5-2.2 8.3v15.5h-4.5V48.7h4.5v12.8c0 1.5-0.1 2.8-0.2 3.8h0.3c0.9-1.4 2.2-2.6 3.8-3.4 1.6-0.8 3.5-1.2 5.6-1.2 3.7 0 6.4 0.9 8.2 2.6 1.8 1.7 2.7 4.5 2.7 8.2v19.4H117.1zM135.5 90.9h-4.5V48.7h4.5V90.9zM157.8 91.4c-4.4 0-7.9-1.3-10.5-4 -2.6-2.7-3.8-6.4-3.8-11.1 0-4.8 1.2-8.6 3.6-11.4 2.4-2.8 5.6-4.2 9.6-4.2 3.8 0 6.7 1.2 8.9 3.7 2.2 2.4 3.3 5.7 3.3 9.7v2.8h-20.6c0.1 3.5 1 6.1 2.7 7.9 1.7 1.8 4.1 2.7 7.1 2.7 3.2 0 6.4-0.7 9.6-2v4c-1.6 0.7-3.1 1.2-4.6 1.5C161.5 91.3 159.8 91.4 157.8 91.4zM156.5 64.4c-2.4 0-4.3 0.8-5.8 2.3 -1.4 1.6-2.3 3.7-2.5 6.5h15.7c0-2.8-0.6-5-1.9-6.5C160.7 65.1 158.9 64.4 156.5 64.4zM197 90.9V71.7c0-2.4-0.6-4.2-1.7-5.4s-2.9-1.8-5.2-1.8c-3.2 0-5.5 0.8-6.9 2.5s-2.2 4.5-2.2 8.3v15.5h-4.5V48.7h4.5v12.8c0 1.5-0.1 2.8-0.2 3.8h0.3c0.9-1.4 2.2-2.6 3.8-3.4 1.6-0.8 3.5-1.2 5.6-1.2 3.7 0 6.4 0.9 8.2 2.6 1.8 1.7 2.7 4.5 2.7 8.2v19.4H197zM238.5 69.4h11.3v3.7h-11.3v11.5h-3.8V73.2h-11.2v-3.7h11.2V57.8h3.8V69.4zM298 62.8c0 4-1.4 7.1-4.1 9.3 -2.8 2.2-6.7 3.2-11.9 3.2h-4.7v15.6h-4.6V51.2H283C293 51.2 298 55.1 298 62.8zM277.3 71.3h4.2c4.1 0 7.1-0.7 8.9-2 1.8-1.3 2.8-3.4 2.8-6.3 0-2.6-0.9-4.6-2.6-5.9 -1.7-1.3-4.4-1.9-8.1-1.9h-5.2V71.3zM324.1 90.9l-0.9-4.2H323c-1.5 1.9-3 3.1-4.5 3.8 -1.5 0.7-3.3 1-5.6 1 -3 0-5.3-0.8-7-2.3 -1.7-1.5-2.5-3.7-2.5-6.5 0-6 4.8-9.1 14.5-9.4l5.1-0.2v-1.8c0-2.3-0.5-4.1-1.5-5.2 -1-1.1-2.6-1.7-4.9-1.7 -2.5 0-5.3 0.8-8.5 2.3l-1.4-3.4c1.5-0.8 3.1-1.4 4.9-1.9 1.8-0.5 3.5-0.7 5.3-0.7 3.6 0 6.2 0.8 7.9 2.4 1.7 1.6 2.6 4.1 2.6 7.6v20.3H324.1zM313.9 87.7c2.8 0 5-0.8 6.7-2.3 1.6-1.5 2.4-3.7 2.4-6.5v-2.7l-4.5 0.2c-3.6 0.1-6.2 0.7-7.8 1.7 -1.6 1-2.4 2.5-2.4 4.6 0 1.6 0.5 2.9 1.5 3.7C310.7 87.3 312.1 87.7 313.9 87.7zM346.5 87.7c0.8 0 1.6-0.1 2.3-0.2s1.3-0.2 1.8-0.4v3.4c-0.5 0.2-1.2 0.4-2.2 0.6 -1 0.2-1.8 0.2-2.6 0.2 -5.8 0-8.7-3-8.7-9.1V64.7h-4.3v-2.2l4.3-1.9 1.9-6.3h2.6v6.9h8.7v3.5h-8.7v17.5c0 1.8 0.4 3.2 1.3 4.1C343.8 87.2 345 87.7 346.5 87.7zM370.3 60.6c1.3 0 2.5 0.1 3.6 0.3l-0.6 4.2c-1.2-0.3-2.3-0.4-3.3-0.4 -2.4 0-4.5 1-6.2 2.9 -1.7 2-2.6 4.4-2.6 7.3v15.9h-4.5V61.2h3.7l0.5 5.5h0.2c1.1-1.9 2.5-3.4 4-4.5C366.7 61.1 368.4 60.6 370.3 60.6zM379.1 53.1c0-1 0.3-1.8 0.8-2.3 0.5-0.5 1.1-0.7 1.9-0.7 0.7 0 1.4 0.2 1.9 0.7s0.8 1.2 0.8 2.3c0 1-0.3 1.8-0.8 2.3 -0.5 0.5-1.2 0.7-1.9 0.7 -0.8 0-1.4-0.2-1.9-0.7C379.3 54.9 379.1 54.1 379.1 53.1zM384 90.9h-4.5V61.2h4.5V90.9zM405.6 91.4c-4.3 0-7.7-1.3-10.1-4s-3.6-6.4-3.6-11.2c0-5 1.2-8.8 3.6-11.5 2.4-2.7 5.9-4.1 10.3-4.1 1.4 0 2.9 0.2 4.3 0.5 1.4 0.3 2.6 0.7 3.4 1.1l-1.4 3.8c-1-0.4-2.1-0.7-3.3-1 -1.2-0.3-2.2-0.4-3.1-0.4 -6.1 0-9.1 3.8-9.1 11.5 0 3.7 0.7 6.5 2.2 8.4 1.5 2 3.7 2.9 6.6 2.9 2.5 0 5.1-0.5 7.7-1.6v4C411.1 90.9 408.6 91.4 405.6 91.4zM424.7 75.7c0.8-1.1 2-2.5 3.6-4.3l9.7-10.2h5.4l-12.1 12.7 13 17.1h-5.5l-10.6-14 -3.4 2.9v11.1h-4.5V48.7h4.5v22.4c0 1-0.1 2.5-0.2 4.6H424.7zM462.6 67.6v-3.7h25.4v3.7H462.6zM462.6 78.7V75h25.4v3.7H462.6zM525.5 90.9h-4.4V62.6c0-2.3 0.1-4.6 0.2-6.7 -0.4 0.4-0.8 0.8-1.3 1.2 -0.5 0.4-2.6 2.2-6.5 5.3l-2.4-3.1 10.6-8.1h3.8V90.9zM557.5 90.9h-4.4V62.6c0-2.3 0.1-4.6 0.2-6.7 -0.4 0.4-0.8 0.8-1.3 1.2 -0.5 0.4-2.6 2.2-6.5 5.3l-2.4-3.1 10.6-8.1h3.8V90.9zM574.1 88c0-1.2 0.3-2.1 0.8-2.8 0.6-0.6 1.4-0.9 2.4-0.9 1.1 0 1.9 0.3 2.5 0.9s0.9 1.5 0.9 2.8c0 1.2-0.3 2.1-0.9 2.7 -0.6 0.6-1.4 0.9-2.5 0.9 -0.9 0-1.7-0.3-2.3-0.9C574.4 90.2 574.1 89.3 574.1 88zM604.4 90.9H600V62.6c0-2.3 0.1-4.6 0.2-6.7 -0.4 0.4-0.8 0.8-1.3 1.2 -0.5 0.4-2.6 2.2-6.5 5.3l-2.4-3.1 10.6-8.1h3.8V90.9zM621 88c0-1.2 0.3-2.1 0.8-2.8 0.6-0.6 1.4-0.9 2.4-0.9 1.1 0 1.9 0.3 2.5 0.9 0.6 0.6 0.9 1.5 0.9 2.8 0 1.2-0.3 2.1-0.9 2.7 -0.6 0.6-1.4 0.9-2.5 0.9 -0.9 0-1.7-0.3-2.3-0.9C621.3 90.2 621 89.3 621 88zM660.8 90.9h-26.3V87L645 76.5c3.2-3.2 5.3-5.5 6.3-6.9 1-1.4 1.8-2.7 2.3-4 0.5-1.3 0.8-2.7 0.8-4.2 0-2.1-0.6-3.8-1.9-5 -1.3-1.2-3.1-1.9-5.4-1.9 -1.7 0-3.2 0.3-4.7 0.8 -1.5 0.5-3.1 1.5-5 3l-2.4-3.1c3.7-3 7.7-4.6 12-4.6 3.8 0 6.7 1 8.8 2.9 2.1 1.9 3.2 4.5 3.2 7.7 0 2.5-0.7 5-2.1 7.5 -1.4 2.5-4.1 5.6-8 9.3l-8.7 8.5v0.2h20.6V90.9zM693 71c0 6.8-1.1 12-3.3 15.3 -2.2 3.4-5.5 5.1-10 5.1 -4.3 0-7.6-1.7-9.8-5.2 -2.2-3.5-3.4-8.5-3.4-15.2 0-6.9 1.1-12 3.3-15.4s5.5-5 9.9-5c4.3 0 7.6 1.7 9.9 5.2C691.9 59.3 693 64.4 693 71zM671.2 71c0 5.8 0.7 10 2 12.6 1.4 2.6 3.5 3.9 6.5 3.9 3 0 5.2-1.3 6.6-4 1.4-2.7 2-6.8 2-12.5 0-5.7-0.7-9.9-2-12.5 -1.4-2.6-3.5-4-6.6-4 -3 0-5.2 1.3-6.5 3.9C671.8 61 671.2 65.2 671.2 71zM715.3 90.9h-4.4V62.6c0-2.3 0.1-4.6 0.2-6.7 -0.4 0.4-0.8 0.8-1.3 1.2 -0.5 0.4-2.6 2.2-6.5 5.3l-2.4-3.1 10.6-8.1h3.8V90.9zM758.7 81.8h-5.9v9.1h-4.3v-9.1H729v-3.9L748 51h4.8v26.6h5.9V81.8zM748.4 77.7V64.5c0-2.6 0.1-5.5 0.3-8.8h-0.2c-0.9 1.7-1.7 3.2-2.5 4.3l-12.5 17.6H748.4z"/>
    </g>
    <g id="portfolio_ms-omearas-multiage">
      <rect fill="#F2F2F2" width="400" height="300"/>
      <path d="M155.4 114.4c0 2.5-0.9 4.7-2.7 6.5 -2 2-4.6 3-7.9 3 -1.4 0.1-3-0.3-4.6-1 -5.4-2.4-8.1-4.3-8.1-5.8 0-2.3 1.4-3.5 4.2-3.5 0.4 0 0.8 0 1.3 0.1 0.1 1.6 1.2 2.9 3.2 3.8 1.8 0.8 3.4 1.2 5 1 1.3-0.1 2-0.7 2-1.7 0-0.2 0-0.4-0.1-0.7 -0.1-0.3-0.1-0.6-0.1-0.8 0-0.2-0.9-0.6-2.6-1.2 -1.9-0.7-3-1.1-3.2-1.2 -5.1-3.6-7.7-8-7.7-13 0-3.1 0.7-5.9 2.2-8.5 1.7-2.9 3.7-4.3 6.2-4.3 1.8 0 3.9 0.8 6.3 2.5 2.4 1.7 3.8 3.5 4.3 5.5 0.4 1.4 0.5 2.5 0.5 3.4 0 1-0.1 1.8-0.3 2.4 -0.3 0.8-0.5 1.6-0.8 2.4 -0.9 0.7-1.7 1-2.6 1 -0.4 0-1.2-0.3-2.3-1 -1.1-0.7-1.6-1.2-1.6-1.7 0-0.2 0.3-0.9 0.8-2.1 0.3-0.7 0.5-1.3 0.5-1.8 0-3.2-1.1-4.8-3.2-4.8 -1.3 0-2.2 1-2.9 2.9 -0.5 1.5-0.7 3.1-0.7 4.8 0 2.1 1.3 4 3.8 5.7 2.3 1.2 4.7 2.5 7.1 3.7C154.1 111.5 155.4 113 155.4 114.4zM166.2 119.2c0 0.9-0.7 1.8-2 2.7 -1.3 0.9-2.5 1.3-3.4 1.3 -1 0-2-0.5-3.2-1.4 -1.1-0.9-1.7-2-1.7-3.2 0-1.1 0.5-2 1.4-2.8 0.9-0.8 1.9-1.2 2.9-1.2 1.2 0 2.5 0.4 3.8 1.3C165.5 116.9 166.2 118 166.2 119.2zM257.7 70.9c0 0.7-0.2 1.4-0.6 1.8 -0.7 0.9-1 1.4-1.1 1.4 -0.3 0.5-0.5 1.9-0.8 4.1 -1.1 10.8-1.8 21.5-1.8 32.1 0 5.9-0.4 9.3 2.6 10v2.1c-1 1.3-1.3 2-2.4 2 -2.3 0-4-2.4-5.1-7.1 -0.9-3.3-1.3-6.8-1.3-10.5 0-8 0.2-14.7 0.6-20.1 -1.3 6.2-2.7 12.4-4.1 18.7 -2.5 9.7-4.9 14.5-7.2 14.5 -2.6 0-5-2.8-7-8.5 -1.9-5.1-4.2-13.8-6.9-25.9 -0.3 3.6-0.4 7.3-0.4 11.1 0 7.8 0.2 13.4 0.5 16.9 0 0.6 0.3 1.7 0.7 3.1 0.5 1.4 0.7 2.5 0.7 3.3 0 1.8-1.2 2.6-3.7 2.6 -2.9 0-4.4-4.6-4.4-13.9 0-3.8 0.2-9.4 0.5-16.9 0.4-7.5 0.5-13.1 0.5-16.8 0-0.4-0.2-0.9-0.5-1.4 -0.4-0.5-0.5-0.9-0.5-1.4 0-3 2.2-4.5 6.7-4.5 1 0 2.3 0.8 3.7 2.3 0.1 1.6 0.4 4.1 0.7 7.5 0.4 4.7 1.5 10.8 3.2 18.5 2.2 9.9 4.1 14.9 5.7 14.9 0.4 0 0.8-0.8 1.4-2.5 1.1-3.2 2.2-7.7 3.3-13.4 0.8-4.6 1.6-9.2 2.4-13.8 0.4-2.2 1-5.3 2-9.4 0.9-3 2.9-4.5 5.9-4.5 1.1 0 2.4 0.3 3.9 0.9C256.8 69.1 257.7 69.9 257.7 70.9zM284.8 115.4c0 2.7-1.5 4.7-4.6 6.2 -2.4 1.2-4.9 1.8-7.5 1.8 -6.9 0-10.4-4.6-10.4-13.9 0-3.8 0.8-8.1 2.4-12.7 1.9-5.7 4.3-8.6 7-8.6 2.5 0 5.1 1.3 8 3.9 2.8 2.6 4.3 5.3 4.3 8.1 0 3.5-1.3 6.3-4 8.4 -2.3 1.9-5.1 2.8-8.3 2.8 -0.6 0-1.6-0.5-3-1.4 0.2 5 1.4 7.6 3.8 7.6 2 0 3.9-0.7 5.8-2 1.9-1.3 3.1-2 3.7-2C283.9 113.5 284.8 114.1 284.8 115.4zM277.5 100.4c0-1.3-0.3-2.6-1-3.8 -0.7-1.2-1.5-1.8-2.6-1.8 -1.5 0-2.6 0.8-3.4 2.3 -0.7 1.3-1 2.9-1 4.7 0 1 0.3 1.8 0.9 2.5 0.6 0.6 1.3 1 2.2 1C275.9 105.2 277.5 103.6 277.5 100.4zM309.1 108.9c0 6.8-0.2 11.7-0.5 14.5 -0.2 1.6-1.2 2.5-2.8 2.5 -2.5 0-3.6-1.5-3.4-4.5 -2.2 1.3-4.6 1.9-7 1.9 -2.3 0-4.6-0.7-6.7-2.1 -2.5-1.6-3.8-3.7-3.8-6.3 0-2.5 1.4-4.8 4.3-7 2.6-2 5-2.9 7.3-2.9h5.4v-1.9c0-5.5-1.2-8.3-4-8.3 -3.5 0-5.2 1.9-5.2 5.8 0 1.3-0.6 2-1.8 2 -0.8 0-1.5-0.4-2.4-1.2 -0.8-0.8-1.2-1.7-1.2-2.6 0-3 0.9-5.4 2.7-7.3 1.8-1.9 4-2.9 6.5-2.9C304.9 88.6 309.1 95.4 309.1 108.9zM302.3 111.8c0-1.1-0.7-1.6-2-1.6 -5.6 0-8.4 1.6-8.4 4.7 0 1.7 1.2 2.5 3.7 2.5 1.5 0 3-0.5 4.3-1.5C301.5 114.8 302.3 113.4 302.3 111.8zM329.4 95c0 0.4 0 1-0.1 1.8 -0.9 1.6-1.9 2.4-3 2.4 -0.9 0-1.6-0.6-2.3-1.8 -0.1-2.4-0.8-3.6-2.2-3.6 -0.8 0-1.8 2.5-3 7.6 -0.5 2.2-0.8 5.3-0.8 9.3 0 3.8 0.1 6 0.4 6.8 0.3 1 0.5 1.7 0.5 2.1 0 0.9-0.3 1.6-1 2.2 -0.7 0.6-1.5 0.8-2.3 0.8 -2.4 0-3.6-1.3-3.6-4 0-0.3 0.1-0.6 0.2-1.1 0.1-0.5 0.2-0.8 0.2-1 0-2.7-0.1-6.7-0.3-12.1 -0.2-5.3-0.3-9.3-0.3-12 0-2.4 1.2-3.6 3.6-3.6 1.4 0 2.4 0.5 3 1.5 1.3-1.6 2.7-2.5 4.2-2.5 1.1 0 2.1 0.3 3.1 1 0.7 0.4 1.5 1.3 2.4 2.7C329 93.2 329.4 94.3 329.4 95zM351.5 108.9c0 6.8-0.2 11.7-0.5 14.5 -0.2 1.6-1.2 2.5-2.8 2.5 -2.5 0-3.6-1.5-3.4-4.5 -2.2 1.3-4.6 1.9-7 1.9 -2.3 0-4.6-0.7-6.7-2.1 -2.5-1.6-3.8-3.7-3.8-6.3 0-2.5 1.4-4.8 4.3-7 2.6-2 5-2.9 7.3-2.9h5v-1.9c0-5.5-1-8.3-3.8-8.3 -3.5 0-5.1 1.9-5.1 5.8 0 1.3-0.5 2-1.8 2 -0.8 0-1.5-0.4-2.3-1.2 -0.8-0.8-1.2-1.7-1.2-2.6 0-3 0.9-5.4 2.7-7.3 1.8-1.9 4-2.9 6.5-2.9C347.3 88.6 351.5 95.4 351.5 108.9zM344.7 111.8c0-1.1-0.7-1.6-2-1.6 -5.6 0-8.4 1.6-8.4 4.7 0 1.7 1.2 2.5 3.7 2.5 1.5 0 3-0.5 4.3-1.5C343.9 114.8 344.7 113.4 344.7 111.8zM352.6 74.2c0-1.2 0.5-2.3 1.4-3.3 0.9-1 2-1.4 3.2-1.4 1.3 0 2.4 0.7 3.4 2.1 0.9 1.4 1.4 3.1 1.4 5.2 0 2.2-0.2 4.1-0.5 5.5 -0.4 1.4-1 2.8-1.9 4.1 -0.9 1.4-1.9 2.6-3 3.5 -1.1 1-2.1 1.5-3 1.5 -0.7-0.1-1.2-0.4-1.6-1 -0.3-0.6-0.3-1.2 0.2-1.9 0.9-0.6 1.7-1.3 2.5-2.1 0.8-0.8 1.4-1.9 1.7-3.3 0.2-0.7 0.3-1.6 0.2-2.4 -0.1-0.9-0.5-1.6-1.2-2.2 -0.8-0.6-1.4-1.2-2-1.8C352.9 76.1 352.6 75.3 352.6 74.2zM378.9 114.4c0 2.5-0.9 4.7-2.7 6.5 -2 2-4.6 3-7.9 3 -1.4 0.1-3-0.3-4.6-1 -5.4-2.4-8.1-4.3-8.1-5.8 0-2.3 1.4-3.5 4.2-3.5 0.4 0 0.8 0 1.3 0.1 0.1 1.6 1.2 2.9 3.2 3.8 1.8 0.8 3.4 1.2 5 1 1.3-0.1 2-0.7 2-1.7 0-0.2 0-0.4-0.1-0.7 -0.1-0.3-0.1-0.6-0.1-0.8 0-0.2-0.9-0.6-2.6-1.2 -1.9-0.7-3-1.1-3.2-1.2 -5.1-3.6-7.7-8-7.7-13 0-3.1 0.7-5.9 2.2-8.5 1.7-2.9 3.7-4.3 6.2-4.3 1.8 0 3.9 0.8 6.3 2.5 2.4 1.7 3.8 3.5 4.3 5.5 0.4 1.4 0.5 2.5 0.5 3.4 0 1-0.1 1.8-0.3 2.4 -0.3 0.8-0.5 1.6-0.8 2.4 -0.9 0.7-1.7 1-2.6 1 -0.4 0-1.2-0.3-2.3-1 -1.1-0.7-1.6-1.2-1.6-1.7 0-0.2 0.3-0.9 0.8-2.1 0.3-0.7 0.5-1.3 0.5-1.8 0-3.2-1.1-4.8-3.2-4.8 -1.3 0-2.2 1-2.9 2.9 -0.5 1.5-0.7 3.1-0.7 4.8 0 2.1 1.3 4 3.8 5.7 2.3 1.2 4.7 2.5 7.1 3.7C377.6 111.5 378.9 113 378.9 114.4zM166.2 172.5c0 2.6-0.3 6.4-0.8 11.5 -0.5 5.1-0.8 9-0.8 11.7 0 2.3 0.1 5.7 0.3 10.3 0.2 4.6 0.3 8 0.3 10.2 0 1.9-1.4 2.8-4.1 2.8 -2.8 0-4.6-1.6-5.3-4.7 -2.7 2.1-5.2 3.1-7.7 3.1 -2 0-4.3-0.6-6.9-1.9 -2.6-1.3-4.4-2.8-5.4-4.6 -2-3.5-3-9-3-16.7 0-2.6 0.1-7.3 0.2-13.9 0.2-5.9 0.3-10.4 0.2-13.7 2.1-1.8 3.9-2.7 5.3-2.7 3.4 0 5.1 1.9 5.1 5.8 0 1.3-0.9 3.3-1.2 5.9 -0.4 2.6-1.2 4.6-1.2 5.9V199c0 2 1.1 4 2 6.2 1.1 2.5 2.8 3.7 4.3 3.7 3 0 5-2.3 6.4-6.8 1-3.1 1.2-6.9 1.2-11.4v-14.9c0-1.9 0-4.2-0.8-7.1 1.7-1.9 3.6-2.8 5.2-2.8 1.7 0 3.3 0.6 4.7 1.9C165.5 169.1 166.2 170.6 166.2 172.5zM220.7 172.4c0 2.2-2.8 3.8-8.5 4.7 -0.1 1.8-0.2 5.9-0.2 12.4v8.2c0 1.7 0.4 4.1 0.8 7.3s0.7 5.6 0.7 7.2c0 1.3-0.5 2.5-1.6 3.5 -1.1 1-2.2 1.5-3.3 1.5 -1.7 0-3.2-1.8-4.3-5.3 -0.9-2.7-1.3-5.4-1.3-7.9v-26.2c-4-0.6-5.1-0.9-5.6-1.1 -1.8-0.7-2.7-1.6-2.7-2.8 0-0.3 0.1-0.2 0.2-0.7 1.8-3.1 3.8-4.1 6.1-4.1 0.1 0 0.3 0 0.6 0 0.3 0 0.4-0.3 0.5-0.3 1.5 0 2-2.5 2-6.5v-9c-1-0.9-0.4-1.7-0.4-2.4 0-1.1 0.6-2 1.7-2.9 1.1-0.9 2.1-1.3 3.1-1.3 1.5 0 2.9 0.8 4.2 2.4 1.3 1.6 2 3.3 2 5.1 0 2-0.8 3.9-1.3 5.9 -0.5 1.9-1.2 3.9-1.2 6v0.5C218 167.1 220.7 169.1 220.7 172.4zM242.2 169.1c0 1.5-0.5 3.6-1.1 6.3 -0.6 2.7-1.1 4.8-1.1 6.3v25.5c0 1.6 0.7 4 1.5 7.4 -1.1 1.9-2.1 2.8-3.4 2.8 -4.4 0-6.8-2.6-7.2-7.8 -0.7-9.7-1.4-16.9-1.4-21.8 0-8.2 0.5-15 0.5-20.5 0-0.4 0-0.8 0-1.2 0-1.5 1.4-2.2 3.3-2.2 1.7 0 3.6 0.4 5.4 1.2C240.9 166 242.2 167.3 242.2 169.1zM243.1 151.7c0 1.8-0.5 3.3-1.6 4.5 -1 1.2-2.3 1.7-3.9 1.7 -1.8 0-3.5-0.7-5.1-2.2 -1.6-1.5-2.4-3.3-2.4-5.4 0-1.8 0.5-3.3 1.6-4.5 1.1-1.2 2.4-1.7 4-1.7 1.9 0 3.6 0.7 5 2.2C242.4 147.7 243.1 149.5 243.1 151.7zM287.4 195.7c0 10.6-0.3 18.2-0.8 22.5 -0.4 2.6-1.8 3.8-4.4 3.8 -3.9 0-5.7-2.3-5.2-6.9 -3.5 2-7.1 3-10.9 3 -3.6 0-7.1-1.1-10.4-3.2 -3.9-2.6-5.9-5.8-5.9-9.8 0-3.9 2.2-7.3 6.7-10.7 4-3.1 7.9-4.4 11.4-4.4h8.1v-3.3c0-8.6-1.7-12.9-6.1-12.9 -5.5 0-8.1 3-8.1 9.1 0 2-0.9 3.1-2.8 3.1 -1.2 0-2.4-0.6-3.7-1.9 -1.3-1.3-1.9-2.6-1.9-4 0-4.6 1.4-8.4 4.2-11.4 2.8-3 6.1-4.5 10.1-4.5C280.9 164.1 287.4 174.6 287.4 195.7zM276.8 200.1c0-1.6-1-2.5-3.1-2.5 -8.7 0-13.1 2.4-13.1 7.3 0 2.6 1.9 4 5.8 4 2.4 0 4.6-0.8 6.7-2.4C275.6 204.8 276.8 202.7 276.8 200.1zM335.5 180c-0.1 2.1-0.6 5.7-1.4 10.9 -0.7 4.5-1 8.2-1 10.9 0 2.5 0.1 6.2 0.3 11.1 0.2 5 0.3 8.7 0.3 11.1 0 5.1-0.4 8.9-1.3 11.4 -1 3.1-2.8 5.7-5.6 7.6 -2.7 1.9-5.6 2.9-8.5 2.9 -3.1 0-6.9-1-11.4-3 -5.4-2.3-8.2-4.9-8.2-7.7 0-3.6 1.4-5.4 4.3-5.4 1.3 0 2.2 0.5 2.7 1.4 0.9 1.6 1.5 2.6 1.8 3 0.3 0.3 1.4 0.7 3.4 1.2 2 0.5 3.3 0.7 4.1 0.7 6.3 0 9.4-4.7 9.4-14 0-2.7-0.1-5-0.3-6.9 -3 3.1-6.6 4.6-10.8 4.6 -1.7 0-3.7-0.6-5.9-1.7 -2.2-1.2-3.8-2.5-4.9-4.1 -2.2-3-3.2-7.4-3.2-13.2 0-7 1.4-14.7 4.1-23.1 3.4-10.3 7.4-15.5 12.3-15.5 2.9 0 5.7 1.6 8.4 4.8 2 3.1 3.9 6.1 5.9 9 0.6 0.8 1.4 1.6 2.6 2.2C334.1 178.9 335.1 179.6 335.5 180zM324.9 187.4c0-1.2-0.5-2.3-1.5-3.1 -0.4-7.6-2.7-11.4-6.7-11.4 -2.3 0-4.2 3.8-5.8 11.5 -1.1 5.9-1.7 10.9-1.7 15.2 0 8.1 1.8 12.1 5.3 12.1 3.4 0 6-3.2 8-9.7C324.1 197.2 324.9 192.3 324.9 187.4zM380 205.8c0 4.1-2.4 7.3-7.1 9.7 -3.7 1.8-7.6 2.7-11.6 2.7 -10.8 0-16.1-7.2-16.1-21.7 0-5.9 1.2-12.5 3.7-19.8 3-8.9 6.6-13.4 10.9-13.4 3.8 0 8 2 12.4 6.1 4.4 4 6.7 8.3 6.7 12.6 0 5.4-2.1 9.8-6.2 13 -3.6 2.9-8 4.3-13 4.3 -1 0-2.5-0.7-4.7-2.1 0.3 7.8 2.2 11.8 5.9 11.8 3.1 0 6.1-1 9.1-3.1 3-2.1 4.9-3.1 5.7-3.1C378.5 202.9 380 203.9 380 205.8zM368.6 182.4c0-2.1-0.5-4-1.5-5.9 -1-1.9-2.4-2.8-4-2.8 -2.3 0-4.1 1.2-5.3 3.6 -1 2.1-1.6 4.5-1.6 7.3 0 1.6 0.5 2.8 1.4 3.8 0.9 1 2.1 1.5 3.5 1.5C366 190 368.6 187.5 368.6 182.4z"/>
      <path stroke="#000000" stroke-width="4" stroke-miterlimit="10" d="M130.1 73.3c0 1.3-0.5 2.5-1.4 3.6 -0.9 1.1-1.7 2.2-2.4 3.3 -0.7 1.1-1.1 3.2-1.1 6.5 0.1 4.6-0.2 6.9-0.3 7.1 -3 30.5-4.8 59-4.8 85.5 0 14 0 20.7 0 20.3 1 10.1 2 15.8 6 17.1v2.1c-1 1.6-1.6 2.4-3 2.4 -7.6 0-12.1-8.8-13.5-26.3 -0.6-6.7-0.7-13.5-0.2-20.3l4.7-69c-4.4 19.2-8.9 38.5-13.3 57.7 -8.2 30.2-16.2 45.3-24 45.3 -3.5 0-7.1-2.6-10.8-7.9 -3-4-5.3-8.4-6.9-13.2 -3.7-11.3-7.6-26.8-11.5-46.8 -3-16-6.1-31.8-9.2-47.6l-1.1 3.2c-2.3 26.4-3.3 45.2-2.9 56.6l1.8 48.9c0.2 5.1 1.7 7.9 4.3 8.3 0.1 3.8-2.8 5.8-8.7 5.8 -5.4 0-8.1-11.8-8.1-35.3 0-10.7 0.5-26.6 1.4-47.8 1-21.2 1.4-37.1 1.4-47.8 0-2.3-0.2-4.1-0.5-5.3 -0.4-1.3-0.5-2.1-0.5-2.4 0-5.6 4.8-8.3 14.5-8.3 1.8 0 4 1.5 6.5 4.5 0.4 4.4 0.9 11 1.6 19.7 1.3 12.5 4.9 30.8 10.7 54.7 7 29.3 12.7 44 17.2 44 5.7 0 11.9-13.4 18.6-40.2 4.2-17.2 7.6-34.3 10.1-51.3 1.6-5.4 3.6-13.1 6-23.1 1.4-6.4 5.6-9.6 12.5-9.6 1.6 0 3.1 0.5 4.7 1.5C129.3 70.2 130.1 71.5 130.1 73.3z"/>
      <path fill="#F4E260" stroke="#000000" stroke-width="3.3" stroke-miterlimit="10" d="M36.2 92.9l-1.1 3.2c-2.3 26.4-3.3 45.2-2.9 56.6l1.8 48.9c0.2 5.1 1.7 7.9 4.3 8.3 0.1 3.8-2.8 5.8-8.7 5.8 -5.4 0-8.1-11.8-8.1-35.3 0-10.7 0.5-26.6 1.4-47.8 1-21.2 1.4-37.1 1.4-47.8 0-2.3-0.2-4.1-0.5-5.3 -0.4-1.3-0.5-2.1-0.5-2.4 0-5.6 4.8-8.3 14.5-8.3L36.2 92.9z"/>
      <line fill="none" stroke="#000000" stroke-miterlimit="10" x1="28" y1="81.5" x2="23" y2="81.5"/>
      <line fill="none" stroke="#000000" stroke-miterlimit="10" x1="28" y1="94.5" x2="23" y2="94.5"/>
      <line fill="none" stroke="#000000" stroke-miterlimit="10" x1="28" y1="108.5" x2="23" y2="108.5"/>
      <line fill="none" stroke="#000000" stroke-miterlimit="10" x1="28" y1="121.5" x2="22" y2="121.5"/>
      <line fill="none" stroke="#000000" stroke-miterlimit="10" x1="28" y1="133.5" x2="22" y2="133.5"/>
      <line fill="none" stroke="#000000" stroke-miterlimit="10" x1="28" y1="146.5" x2="22" y2="146.5"/>
      <line fill="none" stroke="#000000" stroke-miterlimit="10" x1="28" y1="159.5" x2="22" y2="159.5"/>
      <line fill="none" stroke="#000000" stroke-miterlimit="10" x1="28" y1="173.5" x2="20" y2="173.5"/>
      <line fill="none" stroke="#000000" stroke-miterlimit="10" x1="28" y1="185.5" x2="20" y2="185.5"/>
      <line fill="none" stroke="#000000" stroke-miterlimit="10" x1="28" y1="198.5" x2="22" y2="198.5"/>
      <line fill="none" stroke="#000000" stroke-miterlimit="10" x1="28" y1="211.5" x2="24" y2="211.5"/>
      <path fill="#D00092" stroke="#000000" stroke-width="3.3" stroke-miterlimit="10" d="M176.1 142.6c0-1-0.1-2.4-0.3-4.3 -0.2-1.9-0.3-3.3-0.3-4.2 2.3-1.8 4.1-2.7 5.4-2.7 1.5 0 3 0.6 4.4 1.8 1.4 1.2 2.1 2.7 2.1 4.5 0 0.9-0.2 2-0.5 3.2 -0.3 1.3-0.6 2.2-0.7 2.7L176.1 142.6z"/>
      <path stroke="#000000" stroke-width="3.3" stroke-miterlimit="10" d="M187.4 213.4c0 1.5-3.4 5.1-3.4 5.1s-4.7-0.7-5.7-2.8L187.4 213.4z"/>
      <path fill="#E8D0AF" stroke="#000000" stroke-width="3.3" stroke-linecap="round" stroke-miterlimit="10" d="M178.3 215.6c-1.1-2.1-1.8-3.8-2.2-8.1l9.8-1.5c0.3 1.8 0.6 3.4 1 4.6 0.3 1.2 0.5 2.1 0.5 2.7L178.3 215.6z"/>
      <path fill="#F4E260" stroke="#000000" stroke-width="4" stroke-miterlimit="10" d="M176.1 207.5c-0.2-2.3-0.3-6.4-0.3-9.3 0-6.2 0.1-15.5 0.2-27.8 0.1-12.4 0.2-21.7 0.2-27.8l9.3 1c-0.1 0.3-2.3 12.9-2.3 22.3 0 14.9 0 22.6 0 23 2 7.3 1.4 13 2 17.2L176.1 207.5z"/>
      <line fill="none" stroke="#000000" stroke-width="3.3" stroke-miterlimit="10" x1="176.1" y1="146.1" x2="185.6" y2="147"/>
      <path fill="#C61212" stroke="#000000" stroke-width="4.3" stroke-miterlimit="10" d="M201.4 78.5c-3.9-6.4-10.8-9.6-16.8-9.2 -2.9 0.2-5.4 1-7.6 2.3 2.3 3.6 1.8 9.6-1.6 12.1 -0.3 0.5-0.6 0.9-0.9 1.3 -0.7 3-2.8 5.4-6.1 5.4 -0.6 0-1.2-0.1-1.8-0.3 -0.3 2-0.5 4.1-0.5 6.1 0 11.1 2.4 11.5 8 23.5 2 4.3 6.4 5.4 10.1 5.4 0.8 0 0.8 0 2.2-1.1 1.5-1.2 3.6-5.1 7.2-1.6 5.4 5.2 9.4-11.8 10.2-25.3C204.3 90.4 203.7 82.3 201.4 78.5z"/>
      <path fill="#685042" stroke="#000000" stroke-width="2.2" stroke-miterlimit="10" d="M201.7 62.4c0-1.2 0.5-2.3 1.4-3.3 0.9-1 2-1.4 3.2-1.4 1.3 0 2.4 0.7 3.4 2.1 0.9 1.4 1.4 3.1 1.4 5.2 0 2.2-0.2 4.1-0.5 5.5 -0.4 1.4-1 2.8-1.9 4.1 -0.9 1.4-1.9 2.6-3 3.5 -1.1 1-2.1 1.5-3 1.5 -0.7-0.1-1.2-0.4-1.6-1 -0.3-0.6-0.3-1.2 0.2-1.9 0.9-0.6 1.7-1.3 2.5-2.1 0.8-0.8 1.4-1.9 1.7-3.3 0.2-0.7 0.3-1.6 0.2-2.4 -0.1-0.9-0.5-1.6-1.2-2.2 -0.8-0.6-1.4-1.2-2-1.8C202 64.3 201.7 63.5 201.7 62.4z"/>
      <path fill="#00B95F" stroke="#000000" stroke-width="2.2" stroke-miterlimit="10" d="M194.8 62.2c-1.2-3.4-4.7-7.6-6.3-6.8 -1.6 0.8-0.8 6.3 0.4 9.8 1.2 3.4 3.8 6.8 5.4 6S196 65.7 194.8 62.2z"/>
    </g>
    <g id="portfolio_university-of-michigan-athletics">
      <rect fill="#FFD350" width="400" height="300"/>
      <path id="umich_2_" fill="#FFFFFF" d="M369.3 271.5c0 6.8 4.9 11.2 10.3 11.2 5.5 0 10.3-4.4 10.3-11.2 0-6.8-4.9-11.1-10.3-11.1C374.2 260.4 369.3 264.7 369.3 271.5zM372.1 271.5c0-5.1 3.4-8.8 7.6-8.8 4.2 0 7.6 3.7 7.6 8.8 0 5.1-3.4 8.8-7.6 8.8C375.5 280.3 372.1 276.6 372.1 271.5zM375.7 277.8h2.2v-5.4h1.4l2.7 5.4h2.3l-3-5.5c1.7-0.1 2.9-1 2.9-3.3 0-2.7-1.6-3.7-4.4-3.7h-4.3V277.8zM377.9 267.2h1.9c1 0 2.3 0.2 2.3 1.6 0 1.5-0.9 1.7-2.2 1.7h-2V267.2zM197.1 236.4l-68.4-103.9v75.6h27.2v74.6H30v-74.6h25.5V91.9H30V17.3h98.8l68.2 104.7 68.2-104.7h98.8v74.6h-25.5v116.2h25.5v74.6H238.3v-74.6h27.2v-75.6L197.1 236.4z"/>
    </g>
  </defs>
</svg>
