<svg xmlns="http://www.w3.org/2000/svg" xmlns:xlink="http://www.w3.org/1999/xlink" version="1.1" xml:space="preserve">
  <defs>
    <g id="portfolio_wgi-buzz">
      <rect fill="#555555" width="400" height="800"/>
      <path fill="#00833E" stroke="#00833E" stroke-miterlimit="10" d="M183.4 217.6l25.8 111c0.5 2.8 3.4 4.9 6.4 4.9h26.1c2.9 0 4.6-2.1 4-4.9l-25.7-111.1c-0.6-2.8-3.5-5.1-6.4-5.1h-26.1C184.6 212.5 182.8 214.9 183.4 217.6z"/>
      <path fill="#00833E" stroke="#00833E" stroke-miterlimit="10" d="M246.5 213.5c-2.8 0-4.5 2-3.9 4.8l16.3 53.8c0.5-2.5 2.6-5.7 4.1-9 7.5-17.9 22.7-43.7 17.6-47.6 -1.2-1-0.1 0-1.3-1 -2.2-1.8-4.9-1-7.6-1H246.5z"/>
      <path fill="#00833E" stroke="#00833E" stroke-miterlimit="10" d="M118.5 217.6l25.6 111c0.7 2.8 3.5 4.9 6.4 4.9h26.1c2.9 0 4.6-2.1 4.1-4.9L155 217.6c-0.6-2.8-3.4-5.1-6.3-5.1h-26.1C119.6 212.5 117.8 214.9 118.5 217.6z"/>
      <path fill="none" stroke="#FFFFFF" stroke-width="6" stroke-miterlimit="10" d="M200 122.7c-97.3 0-176.5 79.6-176.5 177.5 0 47.5 18.5 92.1 52.1 125.7 1.1 1.1 2.7 4.8 2.7 6.8 0.6 14.7 4.7 48.6 28.4 75 -1.3 1.8-2.4 3.8-3.3 5.9 -4 9.8-3 20.8 2 29.3 -3.7 9.7-2.6 20.5 2.2 28.7 0 0 0 0.1 0 0.1 -5.8 14.3-1.1 31 10.9 38.8 0.6 0.4 9.7 6.3 25.3 11.9 -0.2 2.2-1.2 21.9 13 37.6 10.2 11.2 24.9 17 43.7 17.2 0.4 0 0.8 0 1.3 0 18.1 0 32.2-5.5 42-16.3 13.8-15.3 12.7-35 12.3-38.6 14.7-5.3 23.7-10.8 25.3-11.8 12.1-7.8 16.8-24.6 11-38.9 0 0 0-0.1 0-0.1 4.9-8.3 5.9-18.9 2.3-28.5 5-8.5 6-19.5 2-29.5 -0.8-2-1.8-3.7-3-5.4 23.5-26.5 27.6-60.5 28.2-75.4 0.1-2 1.7-5.8 2.8-6.9 33.5-33.7 51.9-78.3 51.9-125.7C376.5 202.3 297.3 122.7 200 122.7zM221.6 640.8c-4 4.4-11.1 6.5-20.6 6.4 -10.1-0.1-17.5-2.6-21.9-7.3 -2.8-3-4.1-6.6-4.8-9.6 4.8 0.8 9.9 1.6 15.2 2 5.1 0.4 9.2 0.7 10.1 0.7 0.1 0 0.3 0 0.4 0 0.1 0 0.3 0 0.4 0 0.8 0 4.9-0.3 10.1-0.7 5.5-0.4 10.7-1.2 15.6-2C225.6 633.6 224.5 637.6 221.6 640.8zM266.2 556.4c-3.9 2.3-6.8 6.5-7.5 10.9 -1.2 7.6 3.3 12.6 6 15.8 0.4 1-0.2 2.3 0.5 2.2 -0.2 0.1-22.3 14.2-56.9 16.8 -4 0.3-7.2 0.4-8.2 0.4 -1 0-4.2 0-8.2-0.3 -34.2-2.6-56.1-16.2-56.4-16.2 0 0 0 0 0 0 -0.2 0-0.5-1.8 0.5-3.4 2.2-2.5 6.7-7.6 5.5-15.2 -0.7-4.5-3.6-8.7-7.5-11l-0.3 0c-0.2-0.4-0.5-1.7 0.2-3.1 2.2-2.7 6.2-7.8 4.8-15 -0.5-3-2-5.8-4.1-8 11.6 5.5 33.5 13.9 62.3 13.9h6.8c11.9 0 22.6-1.7 31.9-3.7 1.7-0.4 3.3-0.7 4.9-1.1 3.1-0.8 6-1.6 8.7-2.5 1.9-0.6 3.8-1.2 5.6-1.9 4.3-1.6 7.9-3.1 10.9-4.5 -2.1 2.2-3.5 5-4 7.9 -1.3 7.2 2.6 12.3 5.1 15.6 0.4 1 0.2 2.2 0.5 2.2h0L266.2 556.4zM303.4 404.6c-6.4 6.5-11.2 17.5-11.6 27 -1 24.7-9.9 62.9-53.1 76.7 -0.5 0.2-1 0.5-1.5 0.7 -10 3-21.8 5-35.7 5h-1.4c-77.2-1-90.7-51.8-91.9-82.2 -0.4-9.6-5-20.6-11.5-27.1 -27.9-27.9-43.3-65-43.3-104.4 0-81.3 65.8-147.5 146.6-147.5 80.8 0 146.6 66.1 146.6 147.4C346.6 339.6 331.3 376.6 303.4 404.6z"/>
      <path display="none" fill="none" stroke="#FFFFFF" stroke-width="6.5" stroke-miterlimit="10" d="M265.1 339.1c-64.2 52.8-127.5 2.2-130.1 0 -1.6-1.3-3.8-1.5-5.6-0.5 -1.8 1-2.8 3-2.5 5.1l20.4 139.2c0.4 2.8 2.9 4.7 5.7 4.2 2.7-0.4 4.6-3 4.2-5.7l-18.7-127.9c20.6 12.6 70.9 35.6 122.6 1.1l-23.8 126.6c-0.5 2.7 1.3 5.4 4 5.9 0.3 0.1 0.6 0.1 0.9 0.1 2.3 0 4.4-1.7 4.9-4.1l26.1-139.2c0.4-2.1-0.6-4.2-2.4-5.2C269 337.6 266.7 337.8 265.1 339.1z"/>
      <polyline fill="none" stroke="#FFFFFF" stroke-width="4.3" stroke-linejoin="round" stroke-miterlimit="10" points="228 494.1 269.7 404.7 269.7 404.7 "/>
      <polyline fill="none" stroke="#FFFFFF" stroke-width="4.3" stroke-linejoin="round" stroke-miterlimit="10" points=" 163.5 491 119.7 385.8 119.7 385.8 "/>
      <path fill="#FFFFFF" stroke="#FFFFFF" stroke-width="2.2" stroke-miterlimit="10" d="M147.7 372c0.3 1 0.4 2 0.4 3.1 0 5.2-1.8 9.6-5.4 13.4 -3.6 3.8-7.8 5.7-12.7 5.7 -3.6 0-6.4-1.1-8.7-3.2 -2.2-2.1-3.4-4.9-3.4-8.3 0-2.4 0.4-5.9 1.3-10.5l5.1-26.1c-1 0.2-1.9 0.3-2.6 0.3 -4.4 0-6.6-2.3-6.6-6.9 1.3 1.3 3.5 1.9 6.4 1.9 2.6 0 6-0.7 10.2-2l-7.2 36.5c-0.5 2.5-0.7 4.6-0.7 6.5 0 2.5 0.7 4.6 2 6.1 1.3 1.6 3.1 2.4 5.2 2.4 3.2 0 5.9-1.5 8.2-4.4 2.2-2.9 3.4-6.5 3.4-10.6 0-2.1-0.3-4.1-1-6 -2.6-0.9-4.7-2-6.3-3.4 -1.6-1.4-2.5-2.7-2.5-4.1 0-0.7 0.3-1.6 0.9-2.7 5.5 0.4 9.7 2.8 12.6 7.2 2.7 1.3 5.5 1.9 8.4 1.9 3 0 6.1-0.9 9.2-2.7l1.6 2.5c-3.6 2.7-7.5 4.1-11.9 4.1C151.5 372.8 149.6 372.5 147.7 372z"/>
      <path fill="#FFFFFF" stroke="#FFFFFF" stroke-width="2.2" stroke-miterlimit="10" d="M184.7 374.5c-2.8 5.9-6 10.6-9.4 14.3 -3.5 3.7-6.6 5.5-9.3 5.5 -2.2 0-4-0.8-5.4-2.4 -1.4-1.6-2.1-3.6-2.1-6.2 0-3.2 1.1-9.2 3.2-17.9 0.6-2.3 0.9-3.8 0.9-4.4 0-0.6-0.2-1.3-0.6-2l4.2 0c1.8 0 2.7 0.7 2.7 2.1 0 0.9-0.6 3.4-1.8 7.6 -0.4 1.3-0.6 2.1-0.7 2.6l-0.5 1.9c-0.9 3.7-1.3 6.6-1.3 8.6 0 3 1 4.6 3.1 4.6 3.4 0 7.7-4.2 13-12.7 4.3-6.9 6.4-11.8 6.4-14.8 0-0.4-0.1-0.8-0.4-1.2 1.7-0.5 3.1-0.7 4.3-0.7 1.8 0 2.7 0.6 2.7 1.7 0 0.3-0.1 0.7-0.2 1.2 -0.1 0.3-0.3 1.1-0.6 2.2 0 0.2-0.2 1.1-0.6 2.5 -0.3 1-0.5 1.8-0.6 2.4l-0.3 1.5c-0.7 3.4-1 6.5-1 9.5 0 4.5 1.1 6.8 3.2 6.8 4.8 0 10.8-6.8 18.2-20.3l2.6 1.5c-8.4 16.2-16 24.3-23 24.3 -4.7 0-7-4.1-7-12.2C184.4 378.7 184.5 376.8 184.7 374.5z"/>
      <path fill="#FFFFFF" stroke="#FFFFFF" stroke-width="2" stroke-miterlimit="10" d="M233 388.7c0.7 1.8 1 3.3 1 4.5 0 5.3-1.8 10.1-5.5 14.4 -3.7 4.3-7.8 6.4-12.4 6.4 -2.7 0-4.9-0.7-6.7-2 -1.8-1.4-2.6-3.1-2.6-5.1 0-4.2 6.3-10.1 18.9-17.5 -1.7-0.8-3.4-1.1-5.3-1.1 -3 0-6.1 0.8-9.4 2.3 -0.1-0.6-0.1-1-0.1-1.3 0-2.6 0.9-4.3 2.8-5 1.1-1.6 3.2-4.3 6.3-8l7.8-9.5c-2.1 0.6-4.2 1-6.3 1.3l-2.5 0.3c-4.1 0.5-7.1 1.6-8.9 3.4 0.5-3.9 1.4-6.6 2.7-7.7 1.3-1.1 4-1.8 8.1-1.8h2.7c4 0 6.7-0.5 8.3-1.9 0.7 1.1 1.1 2.4 1.1 3.6 0 1.2-0.9 3-2.7 5.1 -0.5 0.6-2.5 3.2-6.1 7.8l-5.1 6.5c1.3-0.2 2.5-0.3 3.4-0.3 3.2 0 5.9 1 8.3 2.9 7.7-5.2 14.4-11.7 19.9-19.3l2.5 1.6C248.9 375.3 242.1 382.2 233 388.7zM228.2 391.7c-10.7 6.9-16 11.9-16 15.1 0 1.1 0.5 2.1 1.4 2.9 0.9 0.8 2.1 1.2 3.4 1.2 2.9 0 5.8-1.6 8.4-4.7 2.7-3.2 4-6.5 4-9.9C229.4 394.8 229 393.2 228.2 391.7z"/>
      <path fill="#FFFFFF" stroke="#FFFFFF" stroke-width="2" stroke-miterlimit="10" d="M272 388.7c0.7 1.8 1 3.3 1 4.5 0 5.3-1.8 10.1-5.5 14.4 -3.7 4.3-7.8 6.4-12.4 6.4 -2.7 0-4.9-0.7-6.7-2 -1.8-1.4-2.6-3.1-2.6-5.1 0-4.2 6.3-10.1 18.9-17.5 -1.7-0.8-3.4-1.1-5.3-1.1 -3 0-6.1 0.8-9.4 2.3 -0.1-0.6-0.1-1-0.1-1.3 0-2.6 0.9-4.3 2.8-5 1.1-1.6 3.2-4.3 6.3-8l7.8-9.5c-2.1 0.6-4.2 1-6.3 1.3l-2.5 0.3c-4.1 0.5-7.1 1.6-8.9 3.4 0.5-3.9 1.4-6.6 2.7-7.7 1.3-1.1 4-1.8 8.1-1.8h2.7c4 0 6.7-0.5 8.3-1.9 0.7 1.1 1.1 2.4 1.1 3.6 0 1.2-0.9 3-2.7 5.1 -0.5 0.6-2.5 3.2-6.1 7.8l-5.1 6.5c1.3-0.2 2.5-0.3 3.4-0.3 3.2 0 5.9 1 8.3 2.9 7.7-5.2 14.4-11.7 19.9-19.3l2.5 1.6C287.9 375.3 281.1 382.2 272 388.7zM267.2 391.7c-10.7 6.9-16 11.9-16 15.1 0 1.1 0.5 2.1 1.4 2.9 0.9 0.8 2.1 1.2 3.4 1.2 2.9 0 5.8-1.6 8.4-4.7 2.7-3.2 4-6.5 4-9.9C268.4 394.8 268 393.2 267.2 391.7z"/>
    </g>
    <g id="portfolio_jahleh-and-patricks-wedding">
      <rect fill="#33C1D7" width="800" height="200"/>
      <path fill="#FFFFFF" stroke="#FFFFFF" stroke-width="2" stroke-miterlimit="10" d="M45.1 126.9c-1.7 0-3.3-0.2-4.1-0.7v-4c1.6 0.4 2.7 0.5 4.1 0.5 1.8 0 3.4-0.5 4.3-1.6 0.9-1.1 1.6-2.7 1.6-4.7V76h4v40.1c0 3.5-0.8 6.1-2.5 8C50.7 126 48.4 126.9 45.1 126.9zM83.6 117l-0.9-5h-0.2c-1.5 2-3 3.2-4.5 3.9 -1.5 0.7-3.3 1-5.6 1 -3 0-5.3-0.7-7-2.3 -1.7-1.5-2.5-3.7-2.5-6.5 0-6 5.1-9.2 14.7-9.5l5.3-0.2v-1.9c0-2.3-0.7-4.1-1.7-5.2 -1-1.1-2.7-1.7-5-1.7 -2.5 0-5.4 0.8-8.5 2.3l-1.4-3.5c1.5-0.8 3.1-1.4 4.8-1.9 1.8-0.5 3.5-0.7 5.3-0.7 3.6 0 6.2 0.8 7.9 2.4C86.1 90 87 92.6 87 96v21H83.6zM73.4 113.2c2.8 0 5.3-0.8 6.9-2.3 1.6-1.5 2.7-3.7 2.7-6.5v-2.7l-4.8 0.2c-3.6 0.1-6.3 0.7-7.9 1.7 -1.6 1-2.5 2.5-2.5 4.6 0 1.6 0.5 2.9 1.5 3.7C70.2 112.8 71.6 113.2 73.4 113.2zM117 117V97.1c0-2.4-0.6-4.3-1.7-5.5s-2.9-1.8-5.3-1.8c-3.2 0-5.4 0.9-6.9 2.6 -1.4 1.7-2.1 4.5-2.1 8.4V117h-5V74h5v12.9c0 1.5-0.2 3.1-0.3 4.1h0.3c0.9-2 2.2-2.7 3.8-3.5 1.6-0.8 3.5-1.3 5.6-1.3 3.7 0 6.2 0.8 8 2.6 1.8 1.7 2.5 4.5 2.5 8.2V117H117zM136 117h-5V74h5V117zM157.5 117c-4.4 0-7.9-1.3-10.5-4 -2.6-2.7-3.8-6.4-3.8-11.2 0-4.8 1.2-8.6 3.6-11.5 2.4-2.8 5.6-4.3 9.6-4.3 3.8 0 6.4 1.2 8.6 3.7 2.2 2.5 3 5.7 3 9.7v2.5h-20.1c0.1 4 1 6.3 2.7 8.1 1.7 1.8 4.4 2.8 7.5 2.8 3.2 0 5.9-0.6 9.9-1.9v4c-2 0.7-3.5 1.2-4.9 1.5C161.7 116.8 159.6 117 157.5 117zM156.3 89.8c-2.4 0-4.3 0.5-5.8 2 -1.4 1.6-2.3 4.2-2.5 6.2h15.7c0-2-0.6-4.7-1.9-6.2C160.5 90.2 158.7 89.8 156.3 89.8zM196 117V97.1c0-2.4-0.1-4.3-1.3-5.5s-2.6-1.8-5-1.8c-3.2 0-5.3 0.9-6.7 2.6 -1.4 1.7-2 4.5-2 8.4V117h-5V74h5v12.9c0 1.5-0.2 3.1-0.4 4.1h0.3c0.9-2 2.2-2.7 3.8-3.5 1.6-0.8 3.5-1.3 5.6-1.3 3.7 0 6.2 0.8 8.1 2.6 1.8 1.7 2.6 4.5 2.6 8.2V117H196zM238 95h11v3h-11v12h-4V98h-11v-3h11V83h4V95zM297.8 87.9c0 4-1.4 7.4-4.1 9.6 -2.8 2.2-6.7 3.5-11.9 3.5H277v16h-4V76h9.8C292.8 76 297.8 80.2 297.8 87.9zM277 97h4.3c4.1 0 7.1-0.8 8.9-2.1 1.8-1.3 2.8-3.5 2.8-6.4 0-2.6-0.9-4.9-2.6-6.2 -1.7-1.3-4.4-2.3-8.1-2.3H277V97zM323.9 117l-0.9-5h-0.2c-1.5 2-3 3.2-4.5 3.9 -1.5 0.7-3.3 1-5.6 1 -3 0-5.3-0.7-7-2.3 -1.7-1.5-2.5-3.7-2.5-6.5 0-6 4.9-9.2 14.6-9.5l5.1-0.2v-1.9c0-2.3-0.6-4.1-1.6-5.2s-2.7-1.7-4.9-1.7c-2.5 0-5.3 0.8-8.5 2.3l-1.4-3.5c1.5-0.8 3.1-1.4 4.8-1.9 1.8-0.5 3.5-0.7 5.3-0.7 3.6 0 6.1 0.8 7.8 2.4 1.7 1.6 2.4 4.1 2.4 7.6v21H323.9zM313.7 113.2c2.8 0 5.2-0.8 6.8-2.3 1.6-1.5 2.5-3.7 2.5-6.5v-2.7l-4.7 0.2c-3.6 0.1-6.3 0.7-7.9 1.7 -1.6 1-2.4 2.5-2.4 4.6 0 1.6 0.5 2.9 1.5 3.7C310.5 112.8 311.9 113.2 313.7 113.2zM346.3 113.2c0.8 0 1.4-0.1 2.1-0.2s1.6-0.2 1.6-0.4v3.5c0 0.2-1 0.4-2 0.6 -1 0.2-1.7 0.2-2.5 0.2 -5.8 0-8.6-3-8.6-9.1V90h-4v-2.1l4.1-2.2 1.8-6.7h3.1v8h8v3h-8v17.7c0 1.8 0.2 3.2 1 4.1C343.9 112.8 344.8 113.2 346.3 113.2zM370.1 86c1.3 0 2.5 0.1 3.6 0.3l-0.6 4.2c-1.2-0.3-2.3-0.4-3.3-0.4 -2.4 0-4.5 1-6.2 2.9 -1.7 2-2.6 4.4-2.6 7.3V117h-4V87h3.2l0.5 5h0.2c1.1-1 2.5-3.4 4-4.5C366.5 86.5 368.2 86 370.1 86zM378.9 78.5c0-1 0.3-1.8 0.8-2.3 0.5-0.5 1.1-0.7 1.9-0.7 0.7 0 1.4 0.2 1.9 0.7 0.5 0.5 0.8 1.2 0.8 2.3 0 1-0.3 1.8-0.8 2.3 -0.5 0.5-1.2 0.7-1.9 0.7 -0.8 0-1.4-0.2-1.9-0.7C379.2 80.2 378.9 79.5 378.9 78.5zM384 117h-5V87h5V117zM405.4 117c-4.3 0-7.7-1.3-10.1-4 -2.4-2.7-3.6-6.4-3.6-11.3 0-5 1.2-8.9 3.6-11.6 2.4-2.7 5.9-4.1 10.3-4.1 1.4 0 2.9 0.2 4.3 0.5 1.4 0.3 2.6 0.7 3.4 1.1l-1.4 3.8c-1-0.4-2.1-0.7-3.3-1 -1.2-0.3-2.2-0.4-3.1-0.4 -6.1 0-9.1 3.9-9.1 11.6 0 3.7 0.7 6.5 2.2 8.5 1.5 2 3.7 2.9 6.6 2.9 2.5 0 4.7-0.5 7.7-1.6v4C411 116.5 408.5 117 405.4 117zM424.6 101c0.8-1 2-2.3 3.6-4.1l9.7-9.9h5.4l-12.1 12.8 13 17.2h-5.5l-10.4-14.4 -3.2 2.7V117h-5V74h5v22.5c0 1-0.5 2.5-0.6 4.5H424.6zM463 93v-4h25v4H463zM463 104v-4h25v4H463zM525 117h-4V88c0-2.4 0-4.6 0.2-6.7 -0.4 0.4-0.8 0.8-1.3 1.2 -0.5 0.4-2.7 2.2-6.5 5.3l-2.4-3.4 10.6-8.4h3.5V117zM557 117h-4V88c0-2.4 0.1-4.6 0.2-6.7 -0.4 0.4-0.8 0.8-1.3 1.2 -0.5 0.4-2.6 2.2-6.5 5.3l-2.4-3.4 10.6-8.4h3.4V117zM574 113.5c0-1.2 0.3-2.1 0.8-2.8 0.6-0.6 1.4-0.9 2.4-0.9 1.1 0 1.9 0.3 2.5 0.9 0.6 0.6 0.9 1.5 0.9 2.8 0 1.2-0.3 2.1-0.9 2.7 -0.6 0.6-1.4 1-2.5 1 -0.9 0-1.7-0.3-2.3-0.9C574.3 115.8 574 114.9 574 113.5zM604 117h-4V88c0-2.4 0-4.6 0.2-6.7 -0.4 0.4-0.8 0.8-1.3 1.2 -0.5 0.4-2.7 2.2-6.5 5.3l-2.4-3.4 10.6-8.4h3.5V117zM620.9 113.5c0-1.2 0.3-2.1 0.8-2.8 0.6-0.6 1.4-0.9 2.4-0.9 1.1 0 1.9 0.3 2.5 0.9 0.6 0.6 0.9 1.5 0.9 2.8 0 1.2-0.3 2.1-0.9 2.7 -0.6 0.6-1.4 1-2.5 1 -0.9 0-1.7-0.3-2.3-0.9C621.2 115.8 620.9 114.9 620.9 113.5zM660 117h-25v-4.5l10.2-10.5c3.2-3.2 5.2-5.5 6.2-6.9 1-1.4 1.7-2.7 2.2-4 0.5-1.3 0.7-2.7 0.7-4.2 0-2.1-0.7-3.8-2-5.1 -1.3-1.2-3.1-1.9-5.4-1.9 -1.7 0-3.2 0.3-4.7 0.8 -1.5 0.5-3.1 1.5-5 3l-2.4-3.1c3.7-3.1 7.7-4.6 12-4.6 3.8 0 6.7 1 8.8 2.9 2.1 1.9 3.2 4.5 3.2 7.7 0 2.5-0.7 5-2.1 7.5 -1.4 2.5-4.2 5.6-8.1 9.4L640 112v0h20V117zM692.9 96.5c0 6.9-1.1 12-3.3 15.4 -2.2 3.4-5.5 5.1-10 5.1 -4.3 0-7.6-1.7-9.8-5.2 -2.2-3.5-3.4-8.6-3.4-15.3 0-6.9 1.1-12.1 3.3-15.5s5.5-5 9.9-5c4.3 0 7.6 1.8 9.9 5.3C691.8 84.7 692.9 89.8 692.9 96.5zM671.1 96.5c0 5.8 0.7 10 2.1 12.7 1.4 2.6 3.5 4 6.5 4 3 0 5.2-1.3 6.6-4 1.4-2.7 2-6.9 2-12.6 0-5.7-0.7-9.9-2-12.6 -1.4-2.7-3.6-4-6.6-4 -3 0-5.2 1.3-6.5 3.9C671.8 86.4 671.1 90.7 671.1 96.5zM715 117h-4V88c0-2.4 0-4.6 0.1-6.7 -0.4 0.4-0.8 0.8-1.3 1.2 -0.5 0.4-2.7 2.2-6.5 5.3l-2.4-3.4 10.6-8.4h3.5V117zM759 107h-6v10h-4v-10h-20v-3.7L747.9 76h5.1v27h6V107zM749 103V89.9c0-2.6-0.5-5.9-0.4-8.9h-0.2c-0.9 2-1.7 3.2-2.5 4.3L733.5 103H749z"/>
    </g>
    <g id="portfolio_ms-omearas-multiage">
      <rect fill="#F2F2F2" width="400" height="400"/>
      <path d="M155.4 170c0 2.1-0.9 3.9-2.7 5.5 -2 1.7-4.6 2.6-7.9 2.6 -1.4 0-3-0.2-4.6-0.9 -5.4-2-8.1-3.7-8.1-4.9 0-2 1.4-3 4.2-3 0.4 0 0.8 0 1.3 0.1 0.1 1.3 1.2 2.4 3.2 3.2 1.8 0.7 3.4 1 5 0.9 1.3-0.1 2-0.6 2-1.4 0-0.1 0-0.3-0.1-0.6 -0.1-0.3-0.1-0.5-0.1-0.6 0-0.2-0.9-0.5-2.6-1 -1.9-0.6-3-0.9-3.2-1 -5.1-3.1-7.7-6.7-7.7-11 0-2.6 0.7-5 2.2-7.2 1.7-2.4 3.7-3.6 6.2-3.6 1.8 0 3.9 0.7 6.3 2.2 2.4 1.4 3.8 3 4.3 4.6 0.4 1.2 0.5 2.1 0.5 2.9 0 0.8-0.1 1.5-0.3 2 -0.3 0.7-0.5 1.3-0.8 2 -0.9 0.6-1.7 0.9-2.6 0.9 -0.4 0-1.2-0.3-2.3-0.8 -1.1-0.6-1.6-1-1.6-1.4 0-0.2 0.3-0.8 0.8-1.7 0.3-0.6 0.5-1.1 0.5-1.5 0-2.7-1.1-4-3.2-4 -1.3 0-2.2 0.8-2.9 2.4 -0.5 1.3-0.7 2.6-0.7 4 0 1.8 1.3 3.4 3.8 4.8 2.3 1 4.7 2.1 7.1 3.2C154.1 167.6 155.4 168.8 155.4 170zM166.2 174.1c0 0.8-0.7 1.5-2 2.3 -1.3 0.7-2.5 1.1-3.4 1.1 -1 0-2-0.4-3.2-1.1 -1.1-0.8-1.7-1.7-1.7-2.7 0-0.9 0.5-1.7 1.4-2.4 0.9-0.7 1.9-1 2.9-1 1.2 0 2.5 0.4 3.8 1.1C165.5 172.1 166.2 173 166.2 174.1zM257.7 133.2c0 0.6-0.2 1.1-0.6 1.5 -0.7 0.8-1 1.2-1.1 1.2 -0.3 0.4-0.5 1.6-0.8 3.5 -1.1 9.2-1.8 18.2-1.8 27.1 0 5-0.4 7.9 2.6 8.5v1.8c-1 1.1-1.3 1.7-2.4 1.7 -2.3 0-4-2-5.1-6 -0.9-2.8-1.3-5.8-1.3-8.9 0-6.8 0.2-12.4 0.6-17 -1.3 5.3-2.7 10.5-4.1 15.8 -2.5 8.2-4.9 12.3-7.2 12.3 -2.6 0-5-2.4-7-7.2 -1.9-4.4-4.2-11.7-6.9-21.9 -0.3 3.1-0.4 6.2-0.4 9.4 0 6.6 0.2 11.4 0.5 14.3 0 0.5 0.3 1.4 0.7 2.6 0.5 1.2 0.7 2.1 0.7 2.8 0 1.5-1.2 2.2-3.7 2.2 -2.9 0-4.4-3.9-4.4-11.8 0-3.2 0.2-7.9 0.5-14.3 0.4-6.3 0.5-11.1 0.5-14.2 0-0.4-0.2-0.7-0.5-1.1 -0.4-0.4-0.5-0.8-0.5-1.1 0-2.5 2.2-3.8 6.7-3.8 1 0 2.3 0.7 3.7 2 0.1 1.4 0.4 3.5 0.7 6.3 0.4 3.9 1.5 9.2 3.2 15.7 2.2 8.4 4.1 12.6 5.7 12.6 0.4 0 0.8-0.7 1.4-2.1 1.1-2.7 2.2-6.5 3.3-11.4 0.8-3.9 1.6-7.8 2.4-11.7 0.4-1.8 1-4.5 2-7.9 0.9-2.6 2.9-3.8 5.9-3.8 1.1 0 2.4 0.2 3.9 0.7C256.8 131.6 257.7 132.4 257.7 133.2zM284.8 170.8c0 2.2-1.5 4-4.6 5.3 -2.4 1-4.9 1.5-7.5 1.5 -6.9 0-10.4-3.9-10.4-11.8 0-3.2 0.8-6.8 2.4-10.8 1.9-4.8 4.3-7.3 7-7.3 2.5 0 5.1 1.1 8 3.3 2.8 2.2 4.3 4.5 4.3 6.9 0 3-1.3 5.3-4 7.1 -2.3 1.6-5.1 2.4-8.3 2.4 -0.6 0-1.6-0.4-3-1.1 0.2 4.3 1.4 6.4 3.8 6.4 2 0 3.9-0.6 5.8-1.7 1.9-1.1 3.1-1.7 3.7-1.7C283.9 169.2 284.8 169.8 284.8 170.8zM277.5 158.1c0-1.1-0.3-2.2-1-3.2 -0.7-1-1.5-1.5-2.6-1.5 -1.5 0-2.6 0.7-3.4 2 -0.7 1.1-1 2.4-1 4 0 0.9 0.3 1.5 0.9 2.1 0.6 0.5 1.3 0.8 2.2 0.8C275.9 162.2 277.5 160.9 277.5 158.1zM309.1 165.3c0 5.8-0.2 9.9-0.5 12.3 -0.2 1.4-1.2 2.1-2.8 2.1 -2.5 0-3.6-1.3-3.4-3.8 -2.2 1.1-4.6 1.6-7 1.6 -2.3 0-4.6-0.6-6.7-1.8 -2.5-1.4-3.8-3.2-3.8-5.3 0-2.1 1.4-4.1 4.3-5.9 2.6-1.7 5-2.5 7.3-2.5h5.4v-1.6c0-4.7-1.2-7-4-7 -3.5 0-5.2 1.6-5.2 4.9 0 1.1-0.6 1.7-1.8 1.7 -0.8 0-1.5-0.3-2.4-1 -0.8-0.7-1.2-1.4-1.2-2.2 0-2.5 0.9-4.6 2.7-6.2 1.8-1.6 4-2.4 6.5-2.4C304.9 148.2 309.1 153.9 309.1 165.3zM302.3 167.7c0-0.9-0.7-1.3-2-1.3 -5.6 0-8.4 1.3-8.4 4 0 1.4 1.2 2.2 3.7 2.2 1.5 0 3-0.4 4.3-1.3C301.5 170.3 302.3 169.1 302.3 167.7zM329.4 153.6c0 0.3 0 0.8-0.1 1.5 -0.9 1.3-1.9 2-3 2 -0.9 0-1.6-0.5-2.3-1.5 -0.1-2-0.8-3-2.2-3 -0.8 0-1.8 2.1-3 6.4 -0.5 1.9-0.8 4.5-0.8 7.9 0 3.2 0.1 5.1 0.4 5.8 0.3 0.9 0.5 1.4 0.5 1.8 0 0.8-0.3 1.4-1 1.9 -0.7 0.5-1.5 0.7-2.3 0.7 -2.4 0-3.6-1.1-3.6-3.4 0-0.2 0.1-0.5 0.2-0.9 0.1-0.4 0.2-0.7 0.2-0.9 0-2.3-0.1-5.7-0.3-10.2 -0.2-4.5-0.3-7.9-0.3-10.1 0-2 1.2-3 3.6-3 1.4 0 2.4 0.4 3 1.3 1.3-1.4 2.7-2.1 4.2-2.1 1.1 0 2.1 0.3 3.1 0.9 0.7 0.4 1.5 1.1 2.4 2.3C329 152 329.4 152.9 329.4 153.6zM351.5 165.3c0 5.8-0.2 9.9-0.5 12.3 -0.2 1.4-1.2 2.1-2.8 2.1 -2.5 0-3.6-1.3-3.4-3.8 -2.2 1.1-4.6 1.6-7 1.6 -2.3 0-4.6-0.6-6.7-1.8 -2.5-1.4-3.8-3.2-3.8-5.3 0-2.1 1.4-4.1 4.3-5.9 2.6-1.7 5-2.5 7.3-2.5h5v-1.6c0-4.7-1-7-3.8-7 -3.5 0-5.1 1.6-5.1 4.9 0 1.1-0.5 1.7-1.8 1.7 -0.8 0-1.5-0.3-2.3-1 -0.8-0.7-1.2-1.4-1.2-2.2 0-2.5 0.9-4.6 2.7-6.2 1.8-1.6 4-2.4 6.5-2.4C347.3 148.2 351.5 153.9 351.5 165.3zM344.7 167.7c0-0.9-0.7-1.3-2-1.3 -5.6 0-8.4 1.3-8.4 4 0 1.4 1.2 2.2 3.7 2.2 1.5 0 3-0.4 4.3-1.3C343.9 170.3 344.7 169.1 344.7 167.7zM352.6 136c0-1 0.5-2 1.4-2.8 0.9-0.8 2-1.2 3.2-1.2 1.3 0 2.4 0.6 3.4 1.8 0.9 1.2 1.4 2.6 1.4 4.4 0 1.9-0.2 3.4-0.5 4.6 -0.4 1.2-1 2.4-1.9 3.5 -0.9 1.2-1.9 2.2-3 3 -1.1 0.8-2.1 1.2-3 1.2 -0.7-0.1-1.2-0.4-1.6-0.8 -0.3-0.5-0.3-1 0.2-1.6 0.9-0.5 1.7-1.1 2.5-1.8 0.8-0.7 1.4-1.6 1.7-2.8 0.2-0.6 0.3-1.3 0.2-2.1 -0.1-0.7-0.5-1.4-1.2-1.9 -0.8-0.5-1.4-1-2-1.5C352.9 137.6 352.6 136.9 352.6 136zM378.9 170c0 2.1-0.9 3.9-2.7 5.5 -2 1.7-4.6 2.6-7.9 2.6 -1.4 0-3-0.2-4.6-0.9 -5.4-2-8.1-3.7-8.1-4.9 0-2 1.4-3 4.2-3 0.4 0 0.8 0 1.3 0.1 0.1 1.3 1.2 2.4 3.2 3.2 1.8 0.7 3.4 1 5 0.9 1.3-0.1 2-0.6 2-1.4 0-0.1 0-0.3-0.1-0.6 -0.1-0.3-0.1-0.5-0.1-0.6 0-0.2-0.9-0.5-2.6-1 -1.9-0.6-3-0.9-3.2-1 -5.1-3.1-7.7-6.7-7.7-11 0-2.6 0.7-5 2.2-7.2 1.7-2.4 3.7-3.6 6.2-3.6 1.8 0 3.9 0.7 6.3 2.2 2.4 1.4 3.8 3 4.3 4.6 0.4 1.2 0.5 2.1 0.5 2.9 0 0.8-0.1 1.5-0.3 2 -0.3 0.7-0.5 1.3-0.8 2 -0.9 0.6-1.7 0.9-2.6 0.9 -0.4 0-1.2-0.3-2.3-0.8 -1.1-0.6-1.6-1-1.6-1.4 0-0.2 0.3-0.8 0.8-1.7 0.3-0.6 0.5-1.1 0.5-1.5 0-2.7-1.1-4-3.2-4 -1.3 0-2.2 0.8-2.9 2.4 -0.5 1.3-0.7 2.6-0.7 4 0 1.8 1.3 3.4 3.8 4.8 2.3 1 4.7 2.1 7.1 3.2C377.6 167.6 378.9 168.8 378.9 170zM166.2 219.1c0 2.2-0.3 5.4-0.8 9.8 -0.5 4.4-0.8 7.6-0.8 9.9 0 2 0.1 4.9 0.3 8.7 0.2 3.9 0.3 6.7 0.3 8.6 0 1.6-1.4 2.4-4.1 2.4 -2.8 0-4.6-1.3-5.3-4 -2.7 1.7-5.2 2.6-7.7 2.6 -2 0-4.3-0.5-6.9-1.6 -2.6-1.1-4.4-2.4-5.4-3.9 -2-2.9-3-7.6-3-14.1 0-2.2 0.1-6.1 0.2-11.7 0.2-5 0.3-8.8 0.2-11.6 2.1-1.5 3.9-2.3 5.3-2.3 3.4 0 5.1 1.6 5.1 4.9 0 1.1-0.9 2.8-1.2 5 -0.4 2.2-1.2 3.9-1.2 5v14.8c0 1.7 1.1 3.4 2 5.2 1.1 2.1 2.8 3.1 4.3 3.1 3 0 5-1.9 6.4-5.8 1-2.7 1.2-5.9 1.2-9.6V222c0-1.6 0-3.6-0.8-6 1.7-1.6 3.6-2.4 5.2-2.4 1.7 0 3.3 0.5 4.7 1.6C165.5 216.2 166.2 217.5 166.2 219.1zM220.7 219.1c0 1.9-2.8 3.2-8.5 4 -0.1 1.5-0.2 5-0.2 10.5v6.9c0 1.4 0.4 3.5 0.8 6.2s0.7 4.7 0.7 6.1c0 1.1-0.5 2.1-1.6 3 -1.1 0.9-2.2 1.3-3.3 1.3 -1.7 0-3.2-1.5-4.3-4.5 -0.9-2.3-1.3-4.5-1.3-6.7v-22.2c-4-0.5-5.1-0.8-5.6-0.9 -1.8-0.6-2.7-1.4-2.7-2.4 0-0.3 0.1-0.3 0.2-0.6 1.8-2.6 3.8-3.6 6.1-3.6 0.1 0 0.3 0 0.6 0 0.3 0 0.4-0.2 0.5-0.2 1.5 0 2-2 2-5.4v-7.6c-1-0.8-0.4-1.4-0.4-2 0-0.9 0.6-1.7 1.7-2.5 1.1-0.7 2.1-1.1 3.1-1.1 1.5 0 2.9 0.7 4.2 2 1.3 1.4 2 2.8 2 4.3 0 1.7-0.8 3.3-1.3 5 -0.5 1.6-1.2 3.3-1.2 5.1v0.4C218 214.6 220.7 216.3 220.7 219.1zM242.2 216.2c0 1.3-0.5 3-1.1 5.3 -0.6 2.3-1.1 4.1-1.1 5.3v21.6c0 1.3 0.7 3.4 1.5 6.3 -1.1 1.6-2.1 2.4-3.4 2.4 -4.4 0-6.8-2.2-7.2-6.6 -0.7-8.2-1.4-14.3-1.4-18.4 0-6.9 0.5-12.7 0.5-17.4 0-0.3 0-0.7 0-1 0-1.3 1.4-1.9 3.3-1.9 1.7 0 3.6 0.4 5.4 1C240.9 213.6 242.2 214.8 242.2 216.2zM243.1 201.6c0 1.5-0.5 2.8-1.6 3.8 -1 1-2.3 1.5-3.9 1.5 -1.8 0-3.5-0.6-5.1-1.9 -1.6-1.3-2.4-2.8-2.4-4.6 0-1.5 0.5-2.8 1.6-3.8 1.1-1 2.4-1.5 4-1.5 1.9 0 3.6 0.6 5 1.8C242.4 198.1 243.1 199.7 243.1 201.6zM287.4 238.7c0 9-0.3 15.4-0.8 19.1 -0.4 2.2-1.8 3.2-4.4 3.2 -3.9 0-5.7-2-5.2-5.9 -3.5 1.7-7.1 2.5-10.9 2.5 -3.6 0-7.1-0.9-10.4-2.7 -3.9-2.2-5.9-4.9-5.9-8.3 0-3.3 2.2-6.2 6.7-9 4-2.6 7.9-3.7 11.4-3.7h8.1v-2.9c0-7.3-1.7-10.9-6.1-10.9 -5.5 0-8.1 2.6-8.1 7.7 0 1.7-0.9 2.6-2.8 2.6 -1.2 0-2.4-0.5-3.7-1.6 -1.3-1.1-1.9-2.2-1.9-3.4 0-3.9 1.4-7.1 4.2-9.6 2.8-2.5 6.1-3.8 10.1-3.8C280.9 212 287.4 220.9 287.4 238.7zM276.8 242.5c0-1.4-1-2.1-3.1-2.1 -8.7 0-13.1 2.1-13.1 6.2 0 2.2 1.9 3.4 5.8 3.4 2.4 0 4.6-0.7 6.7-2C275.6 246.5 276.8 244.7 276.8 242.5zM335.5 225.4c-0.1 1.7-0.6 4.8-1.4 9.2 -0.7 3.8-1 6.9-1 9.2 0 2.1 0.1 5.2 0.3 9.4 0.2 4.2 0.3 7.3 0.3 9.4 0 4.3-0.4 7.5-1.3 9.6 -1 2.7-2.8 4.8-5.6 6.4 -2.7 1.6-5.6 2.5-8.5 2.5 -3.1 0-6.9-0.8-11.4-2.5 -5.4-2-8.2-4.1-8.2-6.5 0-3.1 1.4-4.6 4.3-4.6 1.3 0 2.2 0.4 2.7 1.2 0.9 1.4 1.5 2.2 1.8 2.5 0.3 0.3 1.4 0.6 3.4 1 2 0.4 3.3 0.6 4.1 0.6 6.3 0 9.4-3.9 9.4-11.8 0-2.3-0.1-4.3-0.3-5.9 -3 2.6-6.6 3.9-10.8 3.9 -1.7 0-3.7-0.5-5.9-1.5 -2.2-1-3.8-2.1-4.9-3.5 -2.2-2.5-3.2-6.2-3.2-11.2 0-5.9 1.4-12.5 4.1-19.6 3.4-8.7 7.4-13.1 12.3-13.1 2.9 0 5.7 1.4 8.4 4.1 2 2.6 3.9 5.1 5.9 7.6 0.6 0.7 1.4 1.3 2.6 1.9C334.1 224.6 335.1 225.1 335.5 225.4zM324.9 231.7c0-1-0.5-1.9-1.5-2.6 -0.4-6.4-2.7-9.6-6.7-9.6 -2.3 0-4.2 3.2-5.8 9.7 -1.1 5-1.7 9.2-1.7 12.9 0 6.8 1.8 10.3 5.3 10.3 3.4 0 6-2.7 8-8.2C324.1 240 324.9 235.8 324.9 231.7zM380 247.3c0 3.5-2.4 6.2-7.1 8.2 -3.7 1.5-7.6 2.3-11.6 2.3 -10.8 0-16.1-6.1-16.1-18.3 0-5 1.2-10.6 3.7-16.8 3-7.5 6.6-11.3 10.9-11.3 3.8 0 8 1.7 12.4 5.1 4.4 3.4 6.7 7 6.7 10.7 0 4.6-2.1 8.3-6.2 11 -3.6 2.4-8 3.7-13 3.7 -1 0-2.5-0.6-4.7-1.8 0.3 6.6 2.2 9.9 5.9 9.9 3.1 0 6.1-0.9 9.1-2.6 3-1.7 4.9-2.6 5.7-2.6C378.5 244.8 380 245.7 380 247.3zM368.6 227.5c0-1.7-0.5-3.4-1.5-5 -1-1.6-2.4-2.4-4-2.4 -2.3 0-4.1 1-5.3 3 -1 1.7-1.6 3.8-1.6 6.2 0 1.3 0.5 2.4 1.4 3.2 0.9 0.8 2.1 1.3 3.5 1.3C366 233.9 368.6 231.8 368.6 227.5z"/>
      <path stroke="#000000" stroke-width="3" stroke-miterlimit="10" d="M130.1 135.2c0 1.1-0.5 2.1-1.4 3.1 -0.9 1-1.7 1.9-2.4 2.8 -0.7 0.9-1.1 2.7-1.1 5.5 0.1 3.9 0 5.8-0.1 6 -3 25.8-4.6 49.9-4.6 72.3 0 11.8 0 17.5 0 17.2 1 8.6 2 13.4 5 14.5v1.8c-1 1.3-1.3 2-2.8 2 -7.6 0-12-7.4-13.4-22.2 -0.6-5.7-0.6-11.4-0.1-17.2l4.7-58.4c-4.4 16.3-8.9 32.5-13.3 48.8 -8.2 25.5-16.2 38.3-24 38.3 -3.5 0-7.1-2.2-10.8-6.7 -3-3.4-5.3-7.1-6.9-11.2 -3.7-9.5-7.6-22.7-11.5-39.6 -3-13.5-6.1-26.9-9.2-40.3l-1.1 2.7c-2.3 22.3-3.3 38.3-2.9 47.9l1.8 41.4c0.2 4.3 1.7 6.7 4.3 7 0.1 3.3-2.8 4.9-8.7 4.9 -5.4 0-8.1-9.9-8.1-29.8 0-9 0.5-22.5 1.4-40.4 1-17.9 1.4-31.4 1.4-40.4 0-1.9-0.2-3.4-0.5-4.5 -0.4-1.1-0.5-1.7-0.5-2 0-4.7 4.8-7 14.5-7 1.8 0 4 1.3 6.5 3.8 0.4 3.7 0.9 9.3 1.6 16.6 1.3 10.6 4.9 26 10.7 46.3 7 24.8 12.7 37.2 17.2 37.2 5.7 0 11.9-11.3 18.6-34 4.2-14.6 7.6-29 10.1-43.4 1.6-4.6 3.6-11.1 6-19.5 1.4-5.4 5.6-8.1 12.5-8.1 1.6 0 3.1 0.4 4.7 1.3C129.3 132.6 130.1 133.7 130.1 135.2z"/>
      <path fill="#F4E260" stroke="#000000" stroke-width="3" stroke-miterlimit="10" d="M36.2 151.8l-1.1 2.7c-2.3 22.3-3.3 38.3-2.9 47.9l1.8 41.4c0.2 4.3 1.7 6.7 4.3 7 0.1 3.3-2.8 4.9-8.7 4.9 -5.4 0-8.1-9.9-8.1-29.8 0-9 0.5-22.5 1.4-40.4 1-17.9 1.4-31.4 1.4-40.4 0-1.9-0.2-3.4-0.5-4.5 -0.4-1.1-0.5-1.7-0.5-2 0-4.7 4.8-7 14.5-7L36.2 151.8z"/>
      <line fill="none" stroke="#000000" stroke-miterlimit="10" x1="28" y1="142.5" x2="23" y2="142.5"/>
      <line fill="none" stroke="#000000" stroke-miterlimit="10" x1="28" y1="153.5" x2="23" y2="153.5"/>
      <line fill="none" stroke="#000000" stroke-miterlimit="10" x1="28" y1="164.5" x2="23" y2="164.5"/>
      <line fill="none" stroke="#000000" stroke-miterlimit="10" x1="28" y1="175.5" x2="22" y2="175.5"/>
      <line fill="none" stroke="#000000" stroke-miterlimit="10" x1="28" y1="186.5" x2="22" y2="186.5"/>
      <line fill="none" stroke="#000000" stroke-miterlimit="10" x1="28" y1="197.5" x2="22" y2="197.5"/>
      <line fill="none" stroke="#000000" stroke-miterlimit="10" x1="28" y1="208.5" x2="22" y2="208.5"/>
      <line fill="none" stroke="#000000" stroke-miterlimit="10" x1="28" y1="219.5" x2="20" y2="219.5"/>
      <line fill="none" stroke="#000000" stroke-miterlimit="10" x1="28" y1="230.5" x2="20" y2="230.5"/>
      <line fill="none" stroke="#000000" stroke-miterlimit="10" x1="28" y1="241.5" x2="22" y2="241.5"/>
      <line fill="none" stroke="#000000" stroke-miterlimit="10" x1="28" y1="252.5" x2="24" y2="252.5"/>
      <path fill="#D00092" stroke="#000000" stroke-width="3" stroke-miterlimit="10" d="M176.1 193.8c0-0.8-0.1-2.1-0.3-3.7 -0.2-1.6-0.3-2.8-0.3-3.6 2.3-1.5 4.1-2.3 5.4-2.3 1.5 0 3 0.5 4.4 1.5 1.4 1 2.1 2.3 2.1 3.8 0 0.8-0.2 1.7-0.5 2.7 -0.3 1.1-0.6 1.9-0.7 2.3L176.1 193.8z"/>
      <path stroke="#000000" stroke-width="3" stroke-miterlimit="10" d="M187.4 253.7c0 1.3-3.4 4.3-3.4 4.3s-4.7-0.6-5.7-2.4L187.4 253.7z"/>
      <path fill="#E8D0AF" stroke="#000000" stroke-width="3" stroke-linecap="round" stroke-miterlimit="10" d="M178.3 255.6c-1.1-1.8-1.8-3.2-2.2-6.9l9.8-1.3c0.3 1.5 0.6 2.8 1 3.9 0.3 1 0.5 1.7 0.5 2.3L178.3 255.6z"/>
      <path fill="#F4E260" stroke="#000000" stroke-width="3" stroke-miterlimit="10" d="M176.1 248.8c-0.2-1.9-0.3-5.4-0.3-7.8 0-5.2 0.1-13.1 0.2-23.6 0.1-10.5 0.2-18.3 0.2-23.6l9.5 0.8c-0.1 0.2-2.1 10.9-2.1 18.8 0 12.6 0 19.1 0 19.5 1 6.1 1.1 11 1.8 14.5L176.1 248.8z"/>
      <line fill="none" stroke="#000000" stroke-width="3" stroke-miterlimit="10" x1="176.1" y1="196.8" x2="185.6" y2="197.5"/>
      <path fill="#C61212" stroke="#000000" stroke-width="4" stroke-miterlimit="10" d="M201.4 139.6c-3.9-5.4-10.8-8.1-16.8-7.8 -2.9 0.1-5.4 0.8-7.6 1.9 2.3 3 1.8 8.1-1.6 10.2 -0.3 0.4-0.6 0.8-0.9 1.1 -0.7 2.5-2.8 4.6-6.1 4.6 -0.6 0-1.2-0.1-1.8-0.2 -0.3 1.7-0.5 3.4-0.5 5.2 0 9.4 2.4 9.8 8 19.9 2 3.6 6.4 4.5 10.1 4.5 0.8 0 0.8 0 2.2-0.9 1.5-1 3.6-4.4 7.2-1.4 5.4 4.4 9.4-10 10.2-21.4C204.3 149.7 203.7 142.9 201.4 139.6z"/>
      <path fill="#685042" stroke="#000000" stroke-width="2" stroke-miterlimit="10" d="M201.7 126c0-1 0.5-2 1.4-2.8 0.9-0.8 2-1.2 3.2-1.2 1.3 0 2.4 0.6 3.4 1.8 0.9 1.2 1.4 2.6 1.4 4.4 0 1.9-0.2 3.4-0.5 4.6 -0.4 1.2-1 2.4-1.9 3.5 -0.9 1.2-1.9 2.2-3 3 -1.1 0.8-2.1 1.2-3 1.2 -0.7-0.1-1.2-0.4-1.6-0.8 -0.3-0.5-0.3-1 0.2-1.6 0.9-0.5 1.7-1.1 2.5-1.8 0.8-0.7 1.4-1.6 1.7-2.8 0.2-0.6 0.3-1.3 0.2-2.1 -0.1-0.7-0.5-1.4-1.2-1.9 -0.8-0.5-1.4-1-2-1.5C202 127.6 201.7 126.9 201.7 126z"/>
      <path fill="#00B95F" stroke="#000000" stroke-width="2" stroke-miterlimit="10" d="M194.8 125.8c-1.2-2.9-4.7-6.5-6.3-5.8 -1.6 0.7-0.8 5.4 0.4 8.3 1.2 2.9 3.8 5.8 5.4 5.1C195.9 132.7 196 128.7 194.8 125.8z"/>
    </g>
    <g id="portfolio_wgi-informer">
      <rect fill="#37AB58" width="800" height="200"/>
      <path fill="#FFFFFF" d="M169 63.9V59c5 0.3 9.6 0.5 13.7 0.5 4.3 0 9.3-0.1 14.3-0.5v4.9c-3 0.2-5.3 0.5-6 0.9 -0.7 0.5-1 1.3-1 2.4 0 1.3 1 7.6 3.1 18.8l5.5 30.2 12.3-30.7c4.8-12 8.3-20.5 10.3-26.5h4.3l19.9 60.1 8.1-35.9c1.7-7.8 2.6-13 2.6-16 0-1.2-0.5-2.1-1.1-2.4 -0.7-0.5-3-0.7-7-0.8V59c6 0.3 9.9 0.5 11.5 0.5 2 0 5.5-0.1 10.5-0.5v4.9c-3 0.3-4.3 0.8-5.1 1.4 -0.8 0.8-1.5 2.4-2.2 5.2 -1.1 4.2-4 16-8.6 35.9l-7.6 33.5h-9.1l-19.2-58.2L206 113c-3.9 9.8-7.3 19-10.3 27h-6.8c-0.9-4-3.5-18.8-8.1-43.1L175.7 70c-0.5-2.7-0.8-4.3-1.4-4.8C173.7 64.7 172 64.3 169 63.9zM316 111.6V107c6 0.2 11.4 0.2 16 0.2 4.2 0 8-0.1 14-0.2v3.7c-2 0.6-2.8 1.2-4.1 1.9 -0.4 3.9-0.6 7.2-0.6 10 0 2 0.1 5.9 0.5 11.6 -6.3 2.8-11.7 4.7-16 5.6 -4.3 1-8.7 1.5-13.3 1.5 -12.3 0-22-3.9-29-11.6 -7-7.7-10.5-17.7-10.5-30 0-12.7 3.6-22.8 10.7-30.3 7.1-7.6 17.4-11.4 30.8-11.4 4.7 0 9.2 0.5 13.5 1.3 4.3 0.9 8.5 2.3 12.4 4.1l0.5 0.6c-0.9 4.9-1.6 11-2.1 18h-4c-0.1-3-0.2-6.7-0.6-9.5 -2-2.8-4.7-4.8-7.9-6.3 -3.2-1.4-7-2.1-11.4-2.1 -8.2 0-14.8 3-19.6 9.1 -4.9 6-7.4 14.3-7.4 24.7 0 11.1 2.6 20.1 7.7 26.9 5.1 6.8 11.5 10.2 19.1 10.2 4 0 8.3-1.2 12.7-3.5 0.3-3 0.4-5.7 0.4-8.4 0-6-0.5-9.2-1.1-9.8C326 112.6 323 112.1 316 111.6zM354 140.1v-4.9c4-0.2 6.9-0.7 7.5-1.3 0.6-0.6 0.9-2.1 1-4.5 0.2-5.1 0.3-14.6 0.3-28.4 0-5.3-0.1-13-0.2-23.2 -0.1-6.8-0.2-10.7-0.4-11.3 -0.2-0.7-0.5-1.2-0.9-1.5 -0.8-0.4-3.3-0.8-7.3-1.1v-4.9c7 0.4 11.4 0.5 14.9 0.5 6 0 12.1-0.1 16.1-0.5v4.9c-4 0.3-6.7 0.8-7.2 1.2 -0.6 0.6-0.8 1.7-1 3.6 -0.3 3.7-0.4 11.2-0.4 22.5 0 15 0 25.5 0.1 31.4 0.1 5.9 0.4 9.4 0.9 10.5 0.2 0.5 0.4 0.9 1 1.2 0.6 0.3 2.5 0.6 6.5 0.9v4.9l-5.5-0.2c-3.6-0.2-6.6-0.2-9.4-0.2L354 140.1zM40 59h112v83H40V59zM89.3 71.9l13.5 58.3c0.3 1.4 1.8 2.8 3.3 2.8h13.7c1.5 0 2.4-1.2 2.1-2.7L108.5 72c-0.3-1.4-1.9-3-3.3-3H91.5C89.9 69 89 70.5 89.3 71.9zM122.4 69c-1.4 0-2.4 1.5-2 3l8.5 28.4c0.3-1.3 1.4-2.9 2.1-4.6 3.9-9.4 11.9-22.8 9.2-24.8 -0.6-0.5-0.1-0.5-0.7-1 -1.2-0.9-2.5-1-4-1H122.4zM55.3 71.9l13.4 58.3c0.4 1.4 1.9 2.8 3.4 2.8h13.7c1.5 0 2.4-1.2 2.1-2.7L74.4 72c-0.3-1.4-1.8-3-3.3-3H57.5C55.9 69 55 70.5 55.3 71.9z"/>
      <path fill="#FFFFFF" d="M394 132h-3v-2h8v2h-2v8h-3V132zM401 130h2.8l2.4 7h0l2.3-7h3.6v10h-2v-7h-0.5l-2.5 7h-1.7l-2.5-7H402v7h-1V130z"/>
      <path fill="#FFFFFF" stroke="#FFFFFF" stroke-width="2" stroke-miterlimit="10" d="M457 76v49h-2V76H457zM466.1 76l33.6 47h0.3V76h1v49h-1.9l-33.6-48h0.4v48h-2V76H466.1zM537 98v2h-27v25h-2V76h31v1h-29v21H537zM540.2 100.3c0-3.5 0.5-6.8 1.5-9.9 1-3.1 2.4-5.9 4.3-8.2 1.9-2.3 4.3-4.2 7.1-5.6 2.8-1.4 6.1-2.1 9.7-2.1 3.7 0 6.9 0.7 9.7 2.1 2.8 1.4 5.2 3.2 7.1 5.6 1.9 2.3 3.3 5.1 4.3 8.2 1 3.1 1.5 6.4 1.5 9.9 0 3.5-0.5 6.8-1.5 9.9 -1 3.1-2.4 5.9-4.3 8.2 -1.9 2.3-4.3 4.2-7.1 5.6 -2.8 1.4-6.1 2-9.7 2 -3.7 0-6.9-0.7-9.7-2 -2.8-1.4-5.2-3.2-7.1-5.6 -1.9-2.3-3.3-5.1-4.3-8.2C540.7 107.1 540.2 103.8 540.2 100.3zM541.6 100.3c0 3.5 0.6 6.8 1.5 9.8 1 3 2.4 5.6 4.2 7.7 1.8 2.2 4 3.9 6.6 5.1 2.6 1.2 5.6 1.8 8.9 1.8 3.3 0 6.3-0.6 8.9-1.8 2.6-1.2 4.8-2.9 6.6-5.1 1.8-2.2 3.2-4.7 4.2-7.7 1-3 1.5-6.3 1.5-9.8 0-3.5-0.6-6.8-1.5-9.8 -1-3-2.4-5.6-4.2-7.7 -1.8-2.2-4-3.9-6.6-5.1 -2.6-1.2-5.6-1.8-8.9-1.8 -3.3 0-6.3 0.6-8.9 1.8 -2.6 1.2-4.8 2.9-6.6 5.1 -1.8 2.2-3.2 4.7-4.2 7.7C542.1 93.5 541.6 96.8 541.6 100.3zM591 125V76h20.4c5.1 0 8.9 0.9 11.3 2.9 2.4 2 3.6 5.2 3.7 9.5 0.1 3.3-0.7 6-2.5 8.2 -1.8 2.2-4.8 3.6-7.8 4.4v0.1c2 0.3 3.7 0.8 5 1.5 1.3 0.7 2.2 1.6 2.9 2.8 0.7 1.2 1.1 2.5 1.4 4.1 0.2 1.6 0.3 3.3 0.3 5.3 0 0.7 0 1.6 0.1 2.6 0 1 0.1 2.1 0.2 3.1 0.1 1 0.2 1.9 0.3 2.8s0.3 1.7 0.5 1.7h-1.5c-0.2-1-0.4-1.2-0.6-2.1 -0.1-0.9-0.2-1.8-0.3-2.7 -0.1-1-0.1-1.9-0.1-2.9 0-1 0-1.9 0-2.7 0-2-0.1-3.8-0.4-5.4 -0.3-1.6-0.9-2.9-1.8-4 -0.9-1.1-2.2-1.8-3.9-2.4 -1.7-0.6-4-0.8-6.8-0.8H593v23H591zM611 101c1.8 0 3.6-0.5 5.3-1 1.7-0.5 3.2-1.3 4.4-2.3 1.3-1 2.3-2.4 3.1-3.9 0.8-1.5 1.2-3.4 1.2-5.6 0-3.5-1.1-6.3-3.2-8.2 -2.1-2-5.4-3-10.1-3H593v24H611zM680 76v49h-2V77h0l-20.8 48h-1.5l-20.8-48h0.2v48h-2V76h2.6l20.8 47h0.1l20.8-47H680zM720 123v2h-33V76h33v1h-32v21h30v2h-30v23H720zM724 125V76h20c5.1 0 8.9 0.9 11.3 2.9 2.4 2 3.6 5.2 3.7 9.5 0.1 3.3-0.5 6-2.4 8.2 -1.8 2.2-4.7 3.6-7.7 4.4v0.1c1 0.3 3.5 0.8 4.8 1.5 1.3 0.7 2.1 1.6 2.8 2.8 0.7 1.2 1.1 2.5 1.3 4.1 0.2 1.6 0.3 3.3 0.3 5.3 0 0.7 0 1.6 0.1 2.6 0 1 0.1 2.1 0.2 3.1 0.1 1 0.2 1.9 0.3 2.8s0.3 1.7 0.5 1.7h-1.5c-0.2-1-0.4-1.2-0.6-2.1 -0.1-0.9-0.2-1.8-0.3-2.7 -0.1-1-0.1-1.9-0.1-2.9 0-1 0-1.9 0-2.7 0-2-0.1-3.8-0.4-5.4 -0.3-1.6-0.9-2.9-1.8-4 -0.9-1.1-2.2-1.8-3.9-2.4 -1.7-0.6-4-0.8-6.8-0.8H725v23H724zM743.7 101c1.8 0 3.6-0.5 5.3-1 1.7-0.5 3.2-1.3 4.4-2.3 1.3-1 2.3-2.4 3.1-3.9 0.8-1.5 1.2-3.4 1.2-5.6 0-3.5-1.1-6.3-3.2-8.2 -2.1-2-5.4-3-10.1-3H725v24H743.7z"/>
      <path fill="#FFFFFF" stroke="#FFFFFF" stroke-width="2" stroke-miterlimit="10" d="M430 123h-1v-14h1v6h17v3h-17V123zM429 105h7V95h-7v-2h18v2h-8v10h8v2h-18V105zM429 77h1v9h6v-9h3v9h6V76h2v13h-18V77z"/>
    </g>
    <g id="portfolio_university-of-michigan-athletics">
      <rect fill="#FFD350" width="400" height="400"/>
      <path fill="#FFFFFF" d="M369.3 309.4c0 6.1 4.9 10.1 10.3 10.1 5.5 0 10.3-4 10.3-10.1 0-6.1-4.9-10-10.3-10C374.2 299.3 369.3 303.3 369.3 309.4zM372.1 309.4c0-4.6 3.4-7.9 7.6-7.9 4.2 0 7.6 3.3 7.6 7.9 0 4.6-3.4 7.9-7.6 7.9C375.5 317.3 372.1 314 372.1 309.4zM376 315h2v-5h1.3l2.7 5h2.3l-3-4.9c1.7-0.1 2.9-0.8 2.9-2.9 0-2.4-1.6-3.2-4.4-3.2H376V315zM378 305h1.8c1 0 2.3 0.2 2.3 1.4 0 1.4-0.9 1.6-2.2 1.6H378V305zM197.5 277.8L129 184.3V252h27v68H30v-68h25V148H30V80h98.8l68.2 94.2L265.3 80H364v68h-25v104h25v68H238v-68h28v-67.7L197.5 277.8z"/>
    </g>
  </defs>
</svg>
